<svg xmlns="http://www.w3.org/2000/svg" xmlns:xlink="http://www.w3.org/1999/xlink" width="757" height="597" contentScriptType="application/ecmascript" contentStyleType="text/css" style="width:757px;height:597px" preserveAspectRatio="none" version="1.1" viewBox="0 0 757 597" zoomAndPan="magnify"><defs><filter id="fgniohwq6bbio" width="300%" height="300%" x="-1" y="-1"><feGaussianBlur result="blurOut" stdDeviation="2"/><feColorMatrix in="blurOut" result="blurOut2" type="matrix" values="0 0 0 0 0 0 0 0 0 0 0 0 0 0 0 0 0 0 .4 0"/><feOffset dx="4" dy="4" in="blurOut2" result="blurOut3"/><feBlend in="SourceGraphic" in2="blurOut3" mode="normal"/></filter></defs><g><polygon fill="#FFF" points="22 24 89 24 96 47.609 232 47.609 232 111 22 111 22 24" filter="url(#fgniohwq6bbio)" style="stroke:#000;stroke-width:1.5"/><line style="stroke:#000;stroke-width:1.5" x1="22" x2="96" y1="47.609" y2="47.609"/><text x="26" y="40.533" fill="#000" font-family="sans-serif" font-size="14" font-weight="bold" lengthAdjust="spacingAndGlyphs" textLength="61">PRC7000</text><polygon fill="#FFF" points="115 172 191 172 198 195.609 229 195.609 229 259 115 259 115 172" filter="url(#fgniohwq6bbio)" style="stroke:#000;stroke-width:1.5"/><line style="stroke:#000;stroke-width:1.5" x1="115" x2="198" y1="195.609" y2="195.609"/><text x="119" y="188.533" fill="#000" font-family="sans-serif" font-size="14" font-weight="bold" lengthAdjust="spacingAndGlyphs" textLength="70">mosquitto</text><polygon fill="#FFF" points="256 24 305 24 312 47.609 561 47.609 561 483 256 483 256 24" filter="url(#fgniohwq6bbio)" style="stroke:#000;stroke-width:1.5"/><line style="stroke:#000;stroke-width:1.5" x1="256" x2="312" y1="47.609" y2="47.609"/><text x="260" y="40.533" fill="#000" font-family="sans-serif" font-size="14" font-weight="bold" lengthAdjust="spacingAndGlyphs" textLength="43">Camel</text><polygon fill="#FFF" points="585 306 679 306 686 329.609 735 329.609 735 585 585 585 585 306" filter="url(#fgniohwq6bbio)" style="stroke:#000;stroke-width:1.5"/><line style="stroke:#000;stroke-width:1.5" x1="585" x2="686" y1="329.609" y2="329.609"/><text x="589" y="322.533" fill="#000" font-family="sans-serif" font-size="14" font-weight="bold" lengthAdjust="spacingAndGlyphs" textLength="88">REST Server</text><ellipse cx="48" cy="77.5" fill="#78BE20" filter="url(#fgniohwq6bbio)" rx="10" ry="10" style="stroke:none;stroke-width:1"/><rect style="stroke:#000;stroke-width:1.5" width="102" height="35.094" x="114" y="60" fill="#F5F5F5" filter="url(#fgniohwq6bbio)" rx="12.5" ry="12.5"/><text x="124" y="82.457" fill="#50237F" font-family="sans-serif" font-size="12" lengthAdjust="spacingAndGlyphs" textLength="82">broadcast data</text><rect style="stroke:#000;stroke-width:1.5" width="82" height="35.094" x="131" y="208" fill="#F5F5F5" filter="url(#fgniohwq6bbio)" rx="12.5" ry="12.5"/><text x="141" y="230.457" fill="#50237F" font-family="sans-serif" font-size="12" lengthAdjust="spacingAndGlyphs" textLength="62">queue data</text><rect style="stroke:#000;stroke-width:1.5" width="87" height="35.094" x="272.5" y="60" fill="#F5F5F5" filter="url(#fgniohwq6bbio)" rx="12.5" ry="12.5"/><text x="282.5" y="82.457" fill="#50237F" font-family="sans-serif" font-size="12" lengthAdjust="spacingAndGlyphs" textLength="67">retrieve data</text><rect style="stroke:#000;stroke-width:1.5" width="119" height="35.094" x="425.5" y="60" fill="#F5F5F5" filter="url(#fgniohwq6bbio)" rx="12.5" ry="12.5"/><text x="435.5" y="82.457" fill="#50237F" font-family="sans-serif" font-size="12" lengthAdjust="spacingAndGlyphs" textLength="99">transform payload</text><rect style="stroke:#000;stroke-width:1.5" width="89" height="35.094" x="437.5" y="208" fill="#F5F5F5" filter="url(#fgniohwq6bbio)" rx="12.5" ry="12.5"/><text x="447.5" y="230.457" fill="#50237F" font-family="sans-serif" font-size="12" lengthAdjust="spacingAndGlyphs" textLength="69">split payload</text><rect style="stroke:#000;stroke-width:1.5" width="125" height="35.094" x="274.5" y="342" fill="#F5F5F5" filter="url(#fgniohwq6bbio)" rx="12.5" ry="12.5"/><text x="284.5" y="364.457" fill="#50237F" font-family="sans-serif" font-size="12" lengthAdjust="spacingAndGlyphs" textLength="105">Transform to JSON</text><rect style="stroke:#000;stroke-width:1.5" width="125" height="35.094" x="419.5" y="342" fill="#F5F5F5" filter="url(#fgniohwq6bbio)" rx="12.5" ry="12.5"/><text x="429.5" y="364.457" fill="#50237F" font-family="sans-serif" font-size="12" lengthAdjust="spacingAndGlyphs" textLength="105">Transform to JSON</text><rect style="stroke:#000;stroke-width:1.5" width="111" height="35.094" x="295.5" y="432" fill="#F5F5F5" filter="url(#fgniohwq6bbio)" rx="12.5" ry="12.5"/><text x="305.5" y="454.457" fill="#50237F" font-family="sans-serif" font-size="12" lengthAdjust="spacingAndGlyphs" textLength="91">sent do backend</text><rect style="stroke:#000;stroke-width:1.5" width="111" height="35.094" x="431.5" y="432" fill="#F5F5F5" filter="url(#fgniohwq6bbio)" rx="12.5" ry="12.5"/><text x="441.5" y="454.457" fill="#50237F" font-family="sans-serif" font-size="12" lengthAdjust="spacingAndGlyphs" textLength="91">sent do backend</text><rect style="stroke:#000;stroke-width:1.5" width="86" height="35.094" x="601" y="534" fill="#F5F5F5" filter="url(#fgniohwq6bbio)" rx="12.5" ry="12.5"/><text x="611" y="556.457" fill="#50237F" font-family="sans-serif" font-size="12" lengthAdjust="spacingAndGlyphs" textLength="66">receive data</text><rect style="stroke:#000;stroke-width:1.5" width="118" height="35.094" x="601" y="432" fill="#F5F5F5" filter="url(#fgniohwq6bbio)" rx="12.5" ry="12.5"/><text x="611" y="454.457" fill="#50237F" font-family="sans-serif" font-size="12" lengthAdjust="spacingAndGlyphs" textLength="98">validate message</text><rect style="stroke:#000;stroke-width:1.5" width="76" height="35.094" x="603" y="342" fill="#F5F5F5" filter="url(#fgniohwq6bbio)" rx="12.5" ry="12.5"/><text x="613" y="364.457" fill="#50237F" font-family="sans-serif" font-size="12" lengthAdjust="spacingAndGlyphs" textLength="56">save to db</text><ellipse cx="709" cy="359.5" fill="none" filter="url(#fgniohwq6bbio)" rx="10" ry="10" style="stroke:#50237f;stroke-width:1"/><ellipse cx="709.5" cy="360" fill="#50237F" rx="6" ry="6" style="stroke:none;stroke-width:1"/><path id="start-send" fill="none" d="M58.383,77.5 C69.885,77.5 89.3496,77.5 108.524,77.5" style="stroke:#000;stroke-width:1"/><polygon fill="#000" points="113.917 77.5 104.917 73.5 108.917 77.5 104.917 81.5 113.917 77.5" style="stroke:#000;stroke-width:1"/><text x="69" y="57.919" fill="#000" font-family="sans-serif" font-size="11" lengthAdjust="spacingAndGlyphs" textLength="34">sensor</text><text x="70" y="71.755" fill="#000" font-family="sans-serif" font-size="11" lengthAdjust="spacingAndGlyphs" textLength="32">values</text><path id="send-queue data" fill="none" d="M165.803,95.248 C167.074,121.761 169.55,173.392 170.957,202.738" style="stroke:#000;stroke-width:1"/><polygon fill="#000" points="171.206 207.947 174.769 198.765 170.966 202.953 166.779 199.149 171.206 207.947" style="stroke:#000;stroke-width:1"/><text x="170" y="146.419" fill="#000" font-family="sans-serif" font-size="11" lengthAdjust="spacingAndGlyphs" textLength="28">MQTT</text><path id="queue-queue data" fill="none" d="M295.75,99.031 C266.967,128.214 214.785,181.12 188.326,207.947" style="stroke:#000;stroke-width:1"/><polygon fill="#000" points="299.481 95.248 290.313 98.847 295.97 98.808 296.009 104.465 299.481 95.248" style="stroke:#000;stroke-width:1"/><text x="267" y="146.419" fill="#000" font-family="sans-serif" font-size="11" lengthAdjust="spacingAndGlyphs" textLength="28">MQTT</text><path id="queue-transform" fill="none" d="M359.522,77.5 C378.004,77.5 399.938,77.5 420.257,77.5" style="stroke:#000;stroke-width:1"/><polygon fill="#000" points="425.385 77.5 416.385 73.5 420.385 77.5 416.385 81.5 425.385 77.5" style="stroke:#000;stroke-width:1"/><text x="370.5" y="57.919" fill="#000" font-family="sans-serif" font-size="11" lengthAdjust="spacingAndGlyphs" textLength="44">PRC7000</text><text x="377" y="71.755" fill="#000" font-family="sans-serif" font-size="11" lengthAdjust="spacingAndGlyphs" textLength="31">format</text><path id="transform-split" fill="none" d="M484.656,95.248 C484.111,121.761 483.05,173.392 482.447,202.738" style="stroke:#000;stroke-width:1"/><polygon fill="#000" points="482.34 207.947 486.524 199.031 482.443 202.948 478.526 198.867 482.34 207.947" style="stroke:#000;stroke-width:1"/><text x="485" y="139.419" fill="#000" font-family="sans-serif" font-size="11" lengthAdjust="spacingAndGlyphs" textLength="60">PPMP format</text><text x="499" y="153.255" fill="#000" font-family="sans-serif" font-size="11" lengthAdjust="spacingAndGlyphs" textLength="32">bundle</text><path id="split-measurementString" fill="none" d="M449.949,243.139 C435.152,251.619 417.84,262.728 404,275 C382.975,293.644 363.416,319.389 350.924,337.346" style="stroke:#000;stroke-width:1"/><polygon fill="#000" points="347.903 341.735 356.3 336.589 350.738 337.616 349.71 332.053 347.903 341.735" style="stroke:#000;stroke-width:1"/><text x="405" y="287.419" fill="#000" font-family="sans-serif" font-size="11" lengthAdjust="spacingAndGlyphs" textLength="71">measurements</text><path id="split-processString" fill="none" d="M482,243.218 C482,267.022 482,310.696 482,336.917" style="stroke:#000;stroke-width:1"/><polygon fill="#000" points="482 341.918 486 332.918 482 336.918 478 332.918 482 341.918" style="stroke:#000;stroke-width:1"/><text x="483" y="287.419" fill="#000" font-family="sans-serif" font-size="11" lengthAdjust="spacingAndGlyphs" textLength="40">process</text><path id="measurementString-measurementPOST" fill="none" d="M339.633,377.052 C341.868,391.098 345.091,411.357 347.535,426.717" style="stroke:#000;stroke-width:1"/><polygon fill="#000" points="348.331 431.723 350.867 422.206 347.545 426.785 342.967 423.463 348.331 431.723" style="stroke:#000;stroke-width:1"/><text x="346" y="409.419" fill="#000" font-family="sans-serif" font-size="11" lengthAdjust="spacingAndGlyphs" textLength="28">String</text><path id="processString-processPOST" fill="none" d="M482.94,377.052 C483.739,391.098 484.89,411.357 485.762,426.717" style="stroke:#000;stroke-width:1"/><polygon fill="#000" points="486.047 431.723 489.531 422.511 485.764 426.731 481.544 422.964 486.047 431.723" style="stroke:#000;stroke-width:1"/><text x="486" y="409.419" fill="#000" font-family="sans-serif" font-size="11" lengthAdjust="spacingAndGlyphs" textLength="28">String</text><path id="measurementPOST-receive data" fill="none" d="M376.124,467.125 C389.113,475.173 405.465,484.479 421,491 C479.106,515.3903 549.981,532.2687 596.006,541.6598" style="stroke:#000;stroke-width:1"/><polygon fill="#000" points="600.936 542.657 592.906 536.954 596.035 541.667 591.322 544.795 600.936 542.657" style="stroke:#000;stroke-width:1"/><text x="482" y="511.419" fill="#000" font-family="sans-serif" font-size="11" lengthAdjust="spacingAndGlyphs" textLength="55">HTTP POST</text><path id="receive data-processPOST" fill="none" d="M613.469,531.0535 C584.212,512.4184 540.538,484.6 512.925,467.013" style="stroke:#000;stroke-width:1"/><polygon fill="#000" points="618.036 533.962 612.593 525.754 613.819 531.277 608.296 532.502 618.036 533.962" style="stroke:#000;stroke-width:1"/><text x="586" y="511.419" fill="#000" font-family="sans-serif" font-size="11" lengthAdjust="spacingAndGlyphs" textLength="55">HTTP POST</text><path id="validate message-receive data" fill="none" d="M656.556,472.027 C653.585,490.594 649.357,517.0172 646.646,533.9625" style="stroke:#000;stroke-width:1"/><polygon fill="#000" points="657.358 467.013 651.986 475.268 656.568 471.95 659.886 476.532 657.358 467.013" style="stroke:#000;stroke-width:1"/><path id="save to db-validate message" fill="none" d="M645.65,382.038 C648.955,397.346 653.331,417.611 656.378,431.723" style="stroke:#000;stroke-width:1"/><polygon fill="#000" points="644.574 377.052 642.564 386.694 645.629 381.939 650.384 385.005 644.574 377.052" style="stroke:#000;stroke-width:1"/><path id="save to db-end" fill="none" d="M679.25,359.5 C684.029,359.5 688.808,359.5 693.588,359.5" style="stroke:#000;stroke-width:1"/><polygon fill="#000" points="698.773 359.5 689.773 355.5 693.773 359.5 689.773 363.5 698.773 359.5" style="stroke:#000;stroke-width:1"/></g></svg>