<svg xmlns="http://www.w3.org/2000/svg" width="289" height="117.58" contentScriptType="application/ecmascript" contentStyleType="text/css" preserveAspectRatio="none" version="1.1" viewBox="0 0 289 117.578" zoomAndPan="magnify"><rect width="288" height="116.58" x=".5" y=".5" fill="#f5f5f5" stroke="#50237f" rx="5" ry="5"/><text x="514" y="731.381" fill="#000" font-family="sans-serif" font-size="10" font-weight="bold" lengthAdjust="spacingAndGlyphs" textLength="36" transform="translate(-504.5 -714.76)">Symbol</text><text x="556" y="731.381" fill="#000" font-family="sans-serif" font-size="10" font-weight="bold" lengthAdjust="spacingAndGlyphs" textLength="28" transform="translate(-504.5 -714.76)">Name</text><text x="637" y="731.381" fill="#000" font-family="sans-serif" font-size="10" font-weight="bold" lengthAdjust="spacingAndGlyphs" textLength="56" transform="translate(-504.5 -714.76)">Description</text><text x="556" y="743.959" fill="#000" font-family="sans-serif" font-size="10" lengthAdjust="spacingAndGlyphs" textLength="24" transform="translate(-504.5 -712.11)">Class</text><text x="637" y="743.959" fill="#000" font-family="sans-serif" font-size="10" lengthAdjust="spacingAndGlyphs" textLength="86" transform="translate(-504.5 -712.11)">A complex Object</text><text x="556" y="761.959" fill="#000" font-family="sans-serif" font-size="10" lengthAdjust="spacingAndGlyphs" textLength="58" transform="translate(-504.5 -712.25)">Aggregation</text><text x="637" y="761.959" fill="#000" font-family="sans-serif" font-size="10" lengthAdjust="spacingAndGlyphs" textLength="107" transform="translate(-504.5 -712.09)">List of Objects as Array</text><text x="556" y="779.959" fill="#000" font-family="sans-serif" font-size="10" lengthAdjust="spacingAndGlyphs" textLength="59" transform="translate(-504.5 -712.19)">Composition</text><text x="637" y="779.959" fill="#000" font-family="sans-serif" font-size="10" lengthAdjust="spacingAndGlyphs" textLength="104" transform="translate(-504.5 -712.09)">List of Objects as Map</text><text x="556" y="797.959" fill="#000" font-family="sans-serif" font-size="10" lengthAdjust="spacingAndGlyphs" textLength="54" transform="translate(-504.5 -712.39)">Association</text><text x="637" y="797.959" fill="#000" font-family="sans-serif" font-size="10" lengthAdjust="spacingAndGlyphs" textLength="126" transform="translate(-504.5 -712.11)">A complex Object as child</text><text x="556" y="815.959" fill="#000" font-family="sans-serif" font-size="10" lengthAdjust="spacingAndGlyphs" textLength="69" transform="translate(-504.5 -712.14)">Specialization</text><text x="637" y="815.959" fill="#000" font-family="sans-serif" font-size="10" lengthAdjust="spacingAndGlyphs" textLength="147" transform="translate(-504.5 -712.09)">An extension of another Object</text><line x1="6.5" x2="282.5" y1="20.078" y2="20.078" stroke="#000"/><line x1="6.5" x2="282.5" y1="38.078" y2="38.078" stroke="#000"/><line x1="6.5" x2="282.5" y1="56.078" y2="56.078" stroke="#000"/><line x1="6.5" x2="282.5" y1="74.078" y2="74.078" stroke="#000"/><line x1="6.5" x2="282.5" y1="92.078" y2="92.078" stroke="#000"/><line x1="48.5" x2="48.5" y1="7.5" y2="110.08" stroke="#000"/><line x1="129.5" x2="129.5" y1="7.5" y2="110.08" stroke="#000"/><path fill="none" stroke="#000" stroke-width="1" d="m20.871 26.751h12m-11.5-3.1729h11v11h-11z"/><g fill="none" stroke="#000" transform="translate(0 1.5453)"><path stroke-linecap="square" stroke-width="1" d="m24.935 47.446 5.6592-5.6592"/><rect width="4" height="3.961" x="20.869" y="47.512" ry="0"/><rect width="2" height="2" x="30.774" y="39.593" ry="0"/></g><path fill="none" stroke="#000" stroke-linecap="square" stroke-width="1" d="m21.038 88.97 11.784-11.784"/><g fill="none" stroke="#000"><path d="m25.986 93.638h6.7885v6.7885z" transform="translate(0 .78224)"/><path stroke-linecap="square" stroke-width="1" d="m19.701 106.75 9.6682-9.6682" transform="translate(0 .78224)"/></g><g fill="none" stroke="#000" transform="translate(0 1.3665)"><path stroke-linecap="square" stroke-width="1" d="m24.935 65.602 5.6592-5.6592"/><rect width="4" height="3.961" x="20.869" y="65.668" ry="0"/><rect width="2" height="2" x="30.774" y="57.795" ry="0"/></g></svg>