<svg xmlns="http://www.w3.org/2000/svg" xmlns:xlink="http://www.w3.org/1999/xlink" width="1028" height="668" contentScriptType="application/ecmascript" contentStyleType="text/css" style="width:1028px;height:668px" preserveAspectRatio="none" version="1.1" viewBox="0 0 1028 668" zoomAndPan="magnify"><defs><filter id="f6g7j65rbujtj" width="300%" height="300%" x="-1" y="-1"><feGaussianBlur result="blurOut" stdDeviation="2"/><feColorMatrix in="blurOut" result="blurOut2" type="matrix" values="0 0 0 0 0 0 0 0 0 0 0 0 0 0 0 0 0 0 .4 0"/><feOffset dx="4" dy="4" in="blurOut2" result="blurOut3"/><feBlend in="SourceGraphic" in2="blurOut3" mode="normal"/></filter></defs><g><rect id="Device" width="140" height="96.438" x="6" y="227.5" fill="#F5F5F5" filter="url(#f6g7j65rbujtj)" style="stroke:#000;stroke-width:1.5"/><text x="57.5" y="244.957" fill="#50237F" font-family="sans-serif" font-size="12" lengthAdjust="spacingAndGlyphs" textLength="37">Device</text><line style="stroke:#000;stroke-width:1.5" x1="7" x2="145" y1="252.594" y2="252.594"/><text x="12" y="268.013" fill="#000" font-family="sans-serif" font-size="11" lengthAdjust="spacingAndGlyphs" textLength="42">id: String</text><text x="12" y="281.849" fill="#000" font-family="sans-serif" font-size="11" lengthAdjust="spacingAndGlyphs" textLength="84">mode[0..1]: String</text><text x="12" y="295.685" fill="#000" font-family="sans-serif" font-size="11" lengthAdjust="spacingAndGlyphs" textLength="112">state[0..1]: DeviceState</text><text x="12" y="309.521" fill="#000" font-family="sans-serif" font-size="11" lengthAdjust="spacingAndGlyphs" textLength="128">additionalData[0..1]: Object</text><line style="stroke:#000;stroke-width:1.5" x1="7" x2="145" y1="315.938" y2="315.938"/><rect id="Context" width="140" height="110.273" x="383" y="220.5" fill="#F5F5F5" filter="url(#f6g7j65rbujtj)" style="stroke:#000;stroke-width:1.5"/><text x="432.5" y="237.957" fill="#50237F" font-family="sans-serif" font-size="12" lengthAdjust="spacingAndGlyphs" textLength="41">Context</text><line style="stroke:#000;stroke-width:1.5" x1="384" x2="522" y1="245.594" y2="245.594"/><text x="389" y="261.013" fill="#000" font-family="sans-serif" font-size="11" lengthAdjust="spacingAndGlyphs" textLength="80">limits[0..1]: Limits</text><text x="389" y="274.849" fill="#000" font-family="sans-serif" font-size="11" lengthAdjust="spacingAndGlyphs" textLength="114">namespace[0..1]: String</text><text x="389" y="288.685" fill="#000" font-family="sans-serif" font-size="11" lengthAdjust="spacingAndGlyphs" textLength="103">type[0..1]: ValueType</text><text x="389" y="302.521" fill="#000" font-family="sans-serif" font-size="11" lengthAdjust="spacingAndGlyphs" textLength="75">unit[0..1]: String</text><text x="389" y="316.356" fill="#000" font-family="sans-serif" font-size="11" lengthAdjust="spacingAndGlyphs" textLength="128">additionalData[0..1]: Object</text><line style="stroke:#000;stroke-width:1.5" x1="384" x2="522" y1="322.773" y2="322.773"/><rect id="Limits" width="156" height="110.273" x="375" y="402" fill="#F5F5F5" filter="url(#f6g7j65rbujtj)" style="stroke:#000;stroke-width:1.5"/><text x="436" y="419.457" fill="#50237F" font-family="sans-serif" font-size="12" lengthAdjust="spacingAndGlyphs" textLength="34">Limits</text><line style="stroke:#000;stroke-width:1.5" x1="376" x2="530" y1="427.094" y2="427.094"/><text x="381" y="442.513" fill="#000" font-family="sans-serif" font-size="11" lengthAdjust="spacingAndGlyphs" textLength="142">lowerError[0..1]: Float | [Float]</text><text x="381" y="456.349" fill="#000" font-family="sans-serif" font-size="11" lengthAdjust="spacingAndGlyphs" textLength="144">lowerWarn[0..1]: Float | [Float]</text><text x="381" y="470.185" fill="#000" font-family="sans-serif" font-size="11" lengthAdjust="spacingAndGlyphs" textLength="121">target[0..1]: Float | [Float]</text><text x="381" y="484.021" fill="#000" font-family="sans-serif" font-size="11" lengthAdjust="spacingAndGlyphs" textLength="142">upperError[0..1]: Float | [Float]</text><text x="381" y="497.856" fill="#000" font-family="sans-serif" font-size="11" lengthAdjust="spacingAndGlyphs" textLength="144">upperWarn[0..1]: Float | [Float]</text><line style="stroke:#000;stroke-width:1.5" x1="376" x2="530" y1="504.273" y2="504.273"/><rect id="Part" width="140" height="124.109" x="181" y="213.5" fill="#F5F5F5" filter="url(#f6g7j65rbujtj)" style="stroke:#000;stroke-width:1.5"/><text x="240" y="230.957" fill="#50237F" font-family="sans-serif" font-size="12" lengthAdjust="spacingAndGlyphs" textLength="22">Part</text><line style="stroke:#000;stroke-width:1.5" x1="182" x2="320" y1="238.594" y2="238.594"/><text x="187" y="254.013" fill="#000" font-family="sans-serif" font-size="11" lengthAdjust="spacingAndGlyphs" textLength="82">code[0..1]: String</text><text x="187" y="267.849" fill="#000" font-family="sans-serif" font-size="11" lengthAdjust="spacingAndGlyphs" textLength="66">id[0..1]: String</text><text x="187" y="281.685" fill="#000" font-family="sans-serif" font-size="11" lengthAdjust="spacingAndGlyphs" textLength="94">type[0..1]: PartType</text><text x="187" y="295.521" fill="#000" font-family="sans-serif" font-size="11" lengthAdjust="spacingAndGlyphs" textLength="87">typeId[0..1]: String</text><text x="187" y="309.356" fill="#000" font-family="sans-serif" font-size="11" lengthAdjust="spacingAndGlyphs" textLength="87">result[0..1]: Result</text><text x="187" y="323.192" fill="#000" font-family="sans-serif" font-size="11" lengthAdjust="spacingAndGlyphs" textLength="128">additionalData[0..1]: Object</text><line style="stroke:#000;stroke-width:1.5" x1="182" x2="320" y1="329.609" y2="329.609"/><rect id="DeviceState" width="97" height="117.18" x="794.5" y="11.5" fill="#F5F5F5" filter="url(#f6g7j65rbujtj)" style="stroke:#000;stroke-width:1.5"/><ellipse cx="809.5" cy="27.5" fill="#FFF" rx="11" ry="11" style="stroke:#000;stroke-width:1"/><path d="M808.3594,28.2969 L808.3594,30.7969 L812.6875,30.7969 L812.6875,29.875 Q812.6875,29.2656 812.9297,29 Q813.1719,28.7344 813.5469,28.7344 Q813.9219,28.7344 814.1563,29 Q814.3906,29.2656 814.3906,29.875 L814.3906,32.5 L806.3906,32.5 Q805.7656,32.5 805.5078,32.2656 Q805.25,32.0313 805.25,31.6406 Q805.25,31.2656 805.5156,31.0313 Q805.7813,30.7969 806.3906,30.7969 L806.6563,30.7969 L806.6563,24.1406 L806.3906,24.1406 Q805.7656,24.1406 805.5078,23.9063 Q805.25,23.6719 805.25,23.2813 Q805.25,22.9063 805.5078,22.6719 Q805.7656,22.4375 806.3906,22.4375 L814.0156,22.4375 L814.0156,25.0313 Q814.0156,25.6406 813.7891,25.8984 Q813.5625,26.1563 813.1719,26.1563 Q812.7969,26.1563 812.5625,25.8984 Q812.3281,25.6406 812.3281,25.0313 L812.3281,24.1406 L808.3594,24.1406 L808.3594,26.5938 L809.8438,26.5938 Q809.8438,25.9375 809.9688,25.75 Q810.2344,25.3438 810.7031,25.3438 Q811.0781,25.3438 811.3125,25.6016 Q811.5469,25.8594 811.5469,26.4688 L811.5469,28.4375 Q811.5469,28.9844 811.4219,29.1719 Q811.1563,29.5625 810.7031,29.5625 Q810.2344,29.5625 809.9688,29.1563 Q809.8438,28.9688 809.8438,28.2969 L808.3594,28.2969 Z"/><text x="823.5" y="32.41" fill="#50237F" font-family="sans-serif" font-size="12" lengthAdjust="spacingAndGlyphs" textLength="65">DeviceState</text><line style="stroke:#000;stroke-width:1.5" x1="795.5" x2="890.5" y1="43.5" y2="43.5"/><text x="800.5" y="58.919" fill="#000" font-family="sans-serif" font-size="11" lengthAdjust="spacingAndGlyphs" textLength="15">OK</text><text x="800.5" y="72.755" fill="#000" font-family="sans-serif" font-size="11" lengthAdjust="spacingAndGlyphs" textLength="23">INFO</text><text x="800.5" y="86.591" fill="#000" font-family="sans-serif" font-size="11" lengthAdjust="spacingAndGlyphs" textLength="32">WARN</text><text x="800.5" y="100.427" fill="#000" font-family="sans-serif" font-size="11" lengthAdjust="spacingAndGlyphs" textLength="35">ERROR</text><text x="800.5" y="114.263" fill="#000" font-family="sans-serif" font-size="11" lengthAdjust="spacingAndGlyphs" textLength="53">UNKNOWN</text><line style="stroke:#000;stroke-width:1.5" x1="795.5" x2="890.5" y1="120.68" y2="120.68"/><rect id="Result" width="68" height="89.508" x="927" y="25" fill="#F5F5F5" filter="url(#f6g7j65rbujtj)" style="stroke:#000;stroke-width:1.5"/><ellipse cx="942" cy="41" fill="#FFF" rx="11" ry="11" style="stroke:#000;stroke-width:1"/><path d="M940.8594,41.7969 L940.8594,44.2969 L945.1875,44.2969 L945.1875,43.375 Q945.1875,42.7656 945.4297,42.5 Q945.6719,42.2344 946.0469,42.2344 Q946.4219,42.2344 946.6563,42.5 Q946.8906,42.7656 946.8906,43.375 L946.8906,46 L938.8906,46 Q938.2656,46 938.0078,45.7656 Q937.75,45.5313 937.75,45.1406 Q937.75,44.7656 938.0156,44.5313 Q938.2813,44.2969 938.8906,44.2969 L939.1563,44.2969 L939.1563,37.6406 L938.8906,37.6406 Q938.2656,37.6406 938.0078,37.4063 Q937.75,37.1719 937.75,36.7813 Q937.75,36.4063 938.0078,36.1719 Q938.2656,35.9375 938.8906,35.9375 L946.5156,35.9375 L946.5156,38.5313 Q946.5156,39.1406 946.2891,39.3984 Q946.0625,39.6563 945.6719,39.6563 Q945.2969,39.6563 945.0625,39.3984 Q944.8281,39.1406 944.8281,38.5313 L944.8281,37.6406 L940.8594,37.6406 L940.8594,40.0938 L942.3438,40.0938 Q942.3438,39.4375 942.4688,39.25 Q942.7344,38.8438 943.2031,38.8438 Q943.5781,38.8438 943.8125,39.1016 Q944.0469,39.3594 944.0469,39.9688 L944.0469,41.9375 Q944.0469,42.4844 943.9219,42.6719 Q943.6563,43.0625 943.2031,43.0625 Q942.7344,43.0625 942.4688,42.6563 Q942.3438,42.4688 942.3438,41.7969 L940.8594,41.7969 Z"/><text x="956" y="45.91" fill="#50237F" font-family="sans-serif" font-size="12" lengthAdjust="spacingAndGlyphs" textLength="36">Result</text><line style="stroke:#000;stroke-width:1.5" x1="928" x2="994" y1="57" y2="57"/><text x="933" y="72.419" fill="#000" font-family="sans-serif" font-size="11" lengthAdjust="spacingAndGlyphs" textLength="15">OK</text><text x="933" y="86.255" fill="#000" font-family="sans-serif" font-size="11" lengthAdjust="spacingAndGlyphs" textLength="22">NOK</text><text x="933" y="100.091" fill="#000" font-family="sans-serif" font-size="11" lengthAdjust="spacingAndGlyphs" textLength="53">UNKNOWN</text><line style="stroke:#000;stroke-width:1.5" x1="928" x2="994" y1="106.508" y2="106.508"/><rect id="PartType" width="80" height="75.672" x="803" y="237.5" fill="#F5F5F5" filter="url(#f6g7j65rbujtj)" style="stroke:#000;stroke-width:1.5"/><ellipse cx="818" cy="253.5" fill="#FFF" rx="11" ry="11" style="stroke:#000;stroke-width:1"/><path d="M816.8594,254.2969 L816.8594,256.7969 L821.1875,256.7969 L821.1875,255.875 Q821.1875,255.2656 821.4297,255 Q821.6719,254.7344 822.0469,254.7344 Q822.4219,254.7344 822.6563,255 Q822.8906,255.2656 822.8906,255.875 L822.8906,258.5 L814.8906,258.5 Q814.2656,258.5 814.0078,258.2656 Q813.75,258.0313 813.75,257.6406 Q813.75,257.2656 814.0156,257.0313 Q814.2813,256.7969 814.8906,256.7969 L815.1563,256.7969 L815.1563,250.1406 L814.8906,250.1406 Q814.2656,250.1406 814.0078,249.9063 Q813.75,249.6719 813.75,249.2813 Q813.75,248.9063 814.0078,248.6719 Q814.2656,248.4375 814.8906,248.4375 L822.5156,248.4375 L822.5156,251.0313 Q822.5156,251.6406 822.2891,251.8984 Q822.0625,252.1563 821.6719,252.1563 Q821.2969,252.1563 821.0625,251.8984 Q820.8281,251.6406 820.8281,251.0313 L820.8281,250.1406 L816.8594,250.1406 L816.8594,252.5938 L818.3438,252.5938 Q818.3438,251.9375 818.4688,251.75 Q818.7344,251.3438 819.2031,251.3438 Q819.5781,251.3438 819.8125,251.6016 Q820.0469,251.8594 820.0469,252.4688 L820.0469,254.4375 Q820.0469,254.9844 819.9219,255.1719 Q819.6563,255.5625 819.2031,255.5625 Q818.7344,255.5625 818.4688,255.1563 Q818.3438,254.9688 818.3438,254.2969 L816.8594,254.2969 Z"/><text x="832" y="258.41" fill="#50237F" font-family="sans-serif" font-size="12" lengthAdjust="spacingAndGlyphs" textLength="48">PartType</text><line style="stroke:#000;stroke-width:1.5" x1="804" x2="882" y1="269.5" y2="269.5"/><text x="809" y="284.919" fill="#000" font-family="sans-serif" font-size="11" lengthAdjust="spacingAndGlyphs" textLength="36">SINGLE</text><text x="809" y="298.755" fill="#000" font-family="sans-serif" font-size="11" lengthAdjust="spacingAndGlyphs" textLength="35">BATCH</text><line style="stroke:#000;stroke-width:1.5" x1="804" x2="882" y1="305.172" y2="305.172"/><rect id="ValueType" width="89" height="131.016" x="918.5" y="210" fill="#F5F5F5" filter="url(#f6g7j65rbujtj)" style="stroke:#000;stroke-width:1.5"/><ellipse cx="933.5" cy="226" fill="#FFF" rx="11" ry="11" style="stroke:#000;stroke-width:1"/><path d="M932.3594,226.7969 L932.3594,229.2969 L936.6875,229.2969 L936.6875,228.375 Q936.6875,227.7656 936.9297,227.5 Q937.1719,227.2344 937.5469,227.2344 Q937.9219,227.2344 938.1563,227.5 Q938.3906,227.7656 938.3906,228.375 L938.3906,231 L930.3906,231 Q929.7656,231 929.5078,230.7656 Q929.25,230.5313 929.25,230.1406 Q929.25,229.7656 929.5156,229.5313 Q929.7813,229.2969 930.3906,229.2969 L930.6563,229.2969 L930.6563,222.6406 L930.3906,222.6406 Q929.7656,222.6406 929.5078,222.4063 Q929.25,222.1719 929.25,221.7813 Q929.25,221.4063 929.5078,221.1719 Q929.7656,220.9375 930.3906,220.9375 L938.0156,220.9375 L938.0156,223.5313 Q938.0156,224.1406 937.7891,224.3984 Q937.5625,224.6563 937.1719,224.6563 Q936.7969,224.6563 936.5625,224.3984 Q936.3281,224.1406 936.3281,223.5313 L936.3281,222.6406 L932.3594,222.6406 L932.3594,225.0938 L933.8438,225.0938 Q933.8438,224.4375 933.9688,224.25 Q934.2344,223.8438 934.7031,223.8438 Q935.0781,223.8438 935.3125,224.1016 Q935.5469,224.3594 935.5469,224.9688 L935.5469,226.9375 Q935.5469,227.4844 935.4219,227.6719 Q935.1563,228.0625 934.7031,228.0625 Q934.2344,228.0625 933.9688,227.6563 Q933.8438,227.4688 933.8438,226.7969 L932.3594,226.7969 Z"/><text x="947.5" y="230.91" fill="#50237F" font-family="sans-serif" font-size="12" lengthAdjust="spacingAndGlyphs" textLength="57">ValueType</text><line style="stroke:#000;stroke-width:1.5" x1="919.5" x2="1006.5" y1="242" y2="242"/><text x="924.5" y="257.419" fill="#000" font-family="sans-serif" font-size="11" lengthAdjust="spacingAndGlyphs" textLength="40">BASE64</text><text x="924.5" y="271.255" fill="#000" font-family="sans-serif" font-size="11" lengthAdjust="spacingAndGlyphs" textLength="50">BOOLEAN</text><text x="924.5" y="285.091" fill="#000" font-family="sans-serif" font-size="11" lengthAdjust="spacingAndGlyphs" textLength="42">NUMBER</text><text x="924.5" y="298.927" fill="#000" font-family="sans-serif" font-size="11" lengthAdjust="spacingAndGlyphs" textLength="34">OTHER</text><text x="924.5" y="312.763" fill="#000" font-family="sans-serif" font-size="11" lengthAdjust="spacingAndGlyphs" textLength="19">REF</text><text x="924.5" y="326.599" fill="#000" font-family="sans-serif" font-size="11" lengthAdjust="spacingAndGlyphs" textLength="37">STRING</text><line style="stroke:#000;stroke-width:1.5" x1="919.5" x2="1006.5" y1="333.016" y2="333.016"/><rect id="MeasurementPayload" width="179" height="96.438" x="108.5" y="22" fill="#F5F5F5" filter="url(#f6g7j65rbujtj)" style="stroke:#000;stroke-width:1.5"/><text x="138" y="39.457" fill="#50237F" font-family="sans-serif" font-size="12" lengthAdjust="spacingAndGlyphs" textLength="120">MeasurementPayload</text><line style="stroke:#000;stroke-width:1.5" x1="109.5" x2="286.5" y1="47.094" y2="47.094"/><text x="114.5" y="62.513" fill="#000" font-family="sans-serif" font-size="11" lengthAdjust="spacingAndGlyphs" textLength="101">content-spec : String</text><text x="114.5" y="76.349" fill="#000" font-family="sans-serif" font-size="11" lengthAdjust="spacingAndGlyphs" textLength="74">device : Device</text><text x="114.5" y="90.185" fill="#000" font-family="sans-serif" font-size="11" lengthAdjust="spacingAndGlyphs" textLength="167">measurements : TimeMeasurement</text><text x="114.5" y="104.02" fill="#000" font-family="sans-serif" font-size="11" lengthAdjust="spacingAndGlyphs" textLength="71">part[0..1] : Part</text><line style="stroke:#000;stroke-width:1.5" x1="109.5" x2="286.5" y1="110.438" y2="110.438"/><rect id="TimeMeasurement" width="140" height="124.109" x="410" y="8" fill="#F5F5F5" filter="url(#f6g7j65rbujtj)" style="stroke:#000;stroke-width:1.5"/><text x="428" y="25.457" fill="#50237F" font-family="sans-serif" font-size="12" lengthAdjust="spacingAndGlyphs" textLength="104">TimeMeasurement</text><line style="stroke:#000;stroke-width:1.5" x1="411" x2="549" y1="33.094" y2="33.094"/><text x="416" y="48.513" fill="#000" font-family="sans-serif" font-size="11" lengthAdjust="spacingAndGlyphs" textLength="82">code[0..1]: String</text><text x="416" y="62.349" fill="#000" font-family="sans-serif" font-size="11" lengthAdjust="spacingAndGlyphs" textLength="120">context[0..1]: ContextList</text><text x="416" y="76.185" fill="#000" font-family="sans-serif" font-size="11" lengthAdjust="spacingAndGlyphs" textLength="87">result[0..1]: Result</text><text x="416" y="90.02" fill="#000" font-family="sans-serif" font-size="11" lengthAdjust="spacingAndGlyphs" textLength="89">series: TimeSeries</text><text x="416" y="103.856" fill="#000" font-family="sans-serif" font-size="11" lengthAdjust="spacingAndGlyphs" textLength="37">ts: Date</text><text x="416" y="117.692" fill="#000" font-family="sans-serif" font-size="11" lengthAdjust="spacingAndGlyphs" textLength="128">additionalData[0..1]: Object</text><line style="stroke:#000;stroke-width:1.5" x1="411" x2="549" y1="124.109" y2="124.109"/><rect id="TimeSeries" width="210" height="68.766" x="558" y="241" fill="#F5F5F5" filter="url(#f6g7j65rbujtj)" style="stroke:#000;stroke-width:1.5"/><text x="631" y="258.457" fill="#50237F" font-family="sans-serif" font-size="12" lengthAdjust="spacingAndGlyphs" textLength="64">TimeSeries</text><line style="stroke:#000;stroke-width:1.5" x1="559" x2="767" y1="266.094" y2="266.094"/><text x="564" y="281.513" fill="#000" font-family="sans-serif" font-size="11" lengthAdjust="spacingAndGlyphs" textLength="68">time: [Number]</text><text x="564" y="295.349" fill="#000" font-family="sans-serif" font-size="11" lengthAdjust="spacingAndGlyphs" textLength="198">&lt;values&gt;[1..*]: [Boolean | Number | String]</text><line style="stroke:#000;stroke-width:1.5" x1="559" x2="767" y1="301.766" y2="301.766"/><path id="Context-Limits" fill="none" d="M453,330.843 C453,353.338 453,379.366 453,401.842" style="stroke:#000;stroke-width:1"/><text x="445.552" y="352.459" fill="#000" font-family="sans-serif" font-size="13" lengthAdjust="spacingAndGlyphs" textLength="7">1</text><text x="431.719" y="391.25" fill="#000" font-family="sans-serif" font-size="13" lengthAdjust="spacingAndGlyphs" textLength="20">0..*</text><path id="TimeMeasurement-Context" fill="none" d="M470.155,145.205 C466.853,170.09 463.236,197.352 460.178,220.4" style="stroke:#000;stroke-width:1"/><polygon fill="#000" points="471.899 132.057 467.144 137.479 470.321 143.953 475.075 138.531 471.899 132.057" style="stroke:#000;stroke-width:1"/><text x="469" y="176.495" fill="#000" font-family="sans-serif" font-size="13" lengthAdjust="spacingAndGlyphs" textLength="66">ContextList</text><text x="463.558" y="153.667" fill="#000" font-family="sans-serif" font-size="13" lengthAdjust="spacingAndGlyphs" textLength="7">1</text><text x="437.688" y="209.815" fill="#000" font-family="sans-serif" font-size="13" lengthAdjust="spacingAndGlyphs" textLength="22">0..1</text><path id="MeasurementPayload-Device" fill="none" d="M169.704,118.198 C150.065,150.957 124.005,194.426 104.3535,227.205" style="stroke:#000;stroke-width:1"/><path id="MeasurementPayload-Part" fill="none" d="M210.292,118.198 C217.662,146.495 227.113,182.784 235.053,213.271" style="stroke:#000;stroke-width:1"/><path id="MeasurementPayload-TimeMeasurement" fill="none" d="M300.783,70 C337.03,70 376.92,70 409.847,70" style="stroke:#000;stroke-width:1"/><polygon fill="#FFF" points="287.614 70 293.614 74 299.614 70 293.614 66 287.614 70" style="stroke:#000;stroke-width:1"/><text x="305.75" y="63.495" fill="#000" font-family="sans-serif" font-size="13" lengthAdjust="spacingAndGlyphs" textLength="86">Measurements</text><text x="295.616" y="66.804" fill="#000" font-family="sans-serif" font-size="13" lengthAdjust="spacingAndGlyphs" textLength="7">1</text><text x="381.957" y="84.294" fill="#000" font-family="sans-serif" font-size="13" lengthAdjust="spacingAndGlyphs" textLength="20">1..*</text><path id="TimeMeasurement-TimeSeries" fill="none" d="M534.906,132.057 C567.017,167.764 606.326,211.478 632.863,240.987" style="stroke:#000;stroke-width:1"/><rect style="stroke:#fff;stroke-width:1" width="301" height="127" x="716" y="530" fill="#FFF" rx="5" ry="5"/><svg x="722" y="535"><rect width="288" height="116.58" x=".5" y=".5" fill="#f5f5f5" stroke="#50237f" rx="5" ry="5"/><text x="514" y="731.381" fill="#000" font-family="sans-serif" font-size="10" font-weight="bold" lengthAdjust="spacingAndGlyphs" textLength="36" transform="translate(-504.5 -714.76)">Symbol</text><text x="556" y="731.381" fill="#000" font-family="sans-serif" font-size="10" font-weight="bold" lengthAdjust="spacingAndGlyphs" textLength="28" transform="translate(-504.5 -714.76)">Name</text><text x="637" y="731.381" fill="#000" font-family="sans-serif" font-size="10" font-weight="bold" lengthAdjust="spacingAndGlyphs" textLength="56" transform="translate(-504.5 -714.76)">Description</text><text x="556" y="743.959" fill="#000" font-family="sans-serif" font-size="10" lengthAdjust="spacingAndGlyphs" textLength="24" transform="translate(-504.5 -712.11)">Class</text><text x="637" y="743.959" fill="#000" font-family="sans-serif" font-size="10" lengthAdjust="spacingAndGlyphs" textLength="86" transform="translate(-504.5 -712.11)">A complex Object</text><text x="556" y="761.959" fill="#000" font-family="sans-serif" font-size="10" lengthAdjust="spacingAndGlyphs" textLength="58" transform="translate(-504.5 -712.25)">Aggregation</text><text x="637" y="761.959" fill="#000" font-family="sans-serif" font-size="10" lengthAdjust="spacingAndGlyphs" textLength="107" transform="translate(-504.5 -712.09)">List of Objects as Array</text><text x="556" y="779.959" fill="#000" font-family="sans-serif" font-size="10" lengthAdjust="spacingAndGlyphs" textLength="59" transform="translate(-504.5 -712.19)">Composition</text><text x="637" y="779.959" fill="#000" font-family="sans-serif" font-size="10" lengthAdjust="spacingAndGlyphs" textLength="104" transform="translate(-504.5 -712.09)">List of Objects as Map</text><text x="556" y="797.959" fill="#000" font-family="sans-serif" font-size="10" lengthAdjust="spacingAndGlyphs" textLength="54" transform="translate(-504.5 -712.39)">Association</text><text x="637" y="797.959" fill="#000" font-family="sans-serif" font-size="10" lengthAdjust="spacingAndGlyphs" textLength="126" transform="translate(-504.5 -712.11)">A complex Object as child</text><text x="556" y="815.959" fill="#000" font-family="sans-serif" font-size="10" lengthAdjust="spacingAndGlyphs" textLength="69" transform="translate(-504.5 -712.14)">Specialization</text><text x="637" y="815.959" fill="#000" font-family="sans-serif" font-size="10" lengthAdjust="spacingAndGlyphs" textLength="147" transform="translate(-504.5 -712.09)">An extension of another Object</text><line x1="6.5" x2="282.5" y1="20.078" y2="20.078" stroke="#000"/><line x1="6.5" x2="282.5" y1="38.078" y2="38.078" stroke="#000"/><line x1="6.5" x2="282.5" y1="56.078" y2="56.078" stroke="#000"/><line x1="6.5" x2="282.5" y1="74.078" y2="74.078" stroke="#000"/><line x1="6.5" x2="282.5" y1="92.078" y2="92.078" stroke="#000"/><line x1="48.5" x2="48.5" y1="7.5" y2="110.08" stroke="#000"/><line x1="129.5" x2="129.5" y1="7.5" y2="110.08" stroke="#000"/><path fill="none" stroke="#000" stroke-width="1" d="m20.871 26.751h12m-11.5-3.1729h11v11h-11z"/><g fill="none" stroke="#000" transform="translate(0 1.5453)"><path stroke-linecap="square" stroke-width="1" d="m24.935 47.446 5.6592-5.6592"/><rect width="4" height="3.961" x="20.869" y="47.512" ry="0"/><rect width="2" height="2" x="30.774" y="39.593" ry="0"/></g><path fill="none" stroke="#000" stroke-linecap="square" stroke-width="1" d="m21.038 88.97 11.784-11.784"/><g fill="none" stroke="#000"><path d="m25.986 93.638h6.7885v6.7885z" transform="translate(0 .78224)"/><path stroke-linecap="square" stroke-width="1" d="m19.701 106.75 9.6682-9.6682" transform="translate(0 .78224)"/></g><g fill="none" stroke="#000" transform="translate(0 1.3665)"><path stroke-linecap="square" stroke-width="1" d="m24.935 65.602 5.6592-5.6592"/><rect width="4" height="3.961" x="20.869" y="65.668" ry="0"/><rect width="2" height="2" x="30.774" y="57.795" ry="0"/></g></svg></g></svg>