<svg xmlns="http://www.w3.org/2000/svg" xmlns:xlink="http://www.w3.org/1999/xlink" width="716" height="552" contentScriptType="application/ecmascript" contentStyleType="text/css" style="width:716px;height:552px" preserveAspectRatio="none" version="1.1" viewBox="0 0 716 552" zoomAndPan="magnify"><defs><filter id="favqp4oi5x2wy" width="300%" height="300%" x="-1" y="-1"><feGaussianBlur result="blurOut" stdDeviation="2"/><feColorMatrix in="blurOut" result="blurOut2" type="matrix" values="0 0 0 0 0 0 0 0 0 0 0 0 0 0 0 0 0 0 .4 0"/><feOffset dx="4" dy="4" in="blurOut2" result="blurOut3"/><feBlend in="SourceGraphic" in2="blurOut3" mode="normal"/></filter></defs><g><rect id="Device" width="140" height="96.438" x="345" y="251.5" fill="#F5F5F5" filter="url(#favqp4oi5x2wy)" style="stroke:#000;stroke-width:1.5"/><text x="396.5" y="268.957" fill="#50237F" font-family="sans-serif" font-size="12" lengthAdjust="spacingAndGlyphs" textLength="37">Device</text><line style="stroke:#000;stroke-width:1.5" x1="346" x2="484" y1="276.594" y2="276.594"/><text x="351" y="292.013" fill="#000" font-family="sans-serif" font-size="11" lengthAdjust="spacingAndGlyphs" textLength="42">id: String</text><text x="351" y="305.849" fill="#000" font-family="sans-serif" font-size="11" lengthAdjust="spacingAndGlyphs" textLength="84">mode[0..1]: String</text><text x="351" y="319.685" fill="#000" font-family="sans-serif" font-size="11" lengthAdjust="spacingAndGlyphs" textLength="112">state[0..1]: DeviceState</text><text x="351" y="333.521" fill="#000" font-family="sans-serif" font-size="11" lengthAdjust="spacingAndGlyphs" textLength="128">additionalData[0..1]: Object</text><line style="stroke:#000;stroke-width:1.5" x1="346" x2="484" y1="339.938" y2="339.938"/><rect id="DeviceState" width="97" height="117.18" x="598.5" y="8" fill="#F5F5F5" filter="url(#favqp4oi5x2wy)" style="stroke:#000;stroke-width:1.5"/><ellipse cx="613.5" cy="24" fill="#FFF" rx="11" ry="11" style="stroke:#000;stroke-width:1"/><path d="M612.3594,24.7969 L612.3594,27.2969 L616.6875,27.2969 L616.6875,26.375 Q616.6875,25.7656 616.9297,25.5 Q617.1719,25.2344 617.5469,25.2344 Q617.9219,25.2344 618.1563,25.5 Q618.3906,25.7656 618.3906,26.375 L618.3906,29 L610.3906,29 Q609.7656,29 609.5078,28.7656 Q609.25,28.5313 609.25,28.1406 Q609.25,27.7656 609.5156,27.5313 Q609.7813,27.2969 610.3906,27.2969 L610.6563,27.2969 L610.6563,20.6406 L610.3906,20.6406 Q609.7656,20.6406 609.5078,20.4063 Q609.25,20.1719 609.25,19.7813 Q609.25,19.4063 609.5078,19.1719 Q609.7656,18.9375 610.3906,18.9375 L618.0156,18.9375 L618.0156,21.5313 Q618.0156,22.1406 617.7891,22.3984 Q617.5625,22.6563 617.1719,22.6563 Q616.7969,22.6563 616.5625,22.3984 Q616.3281,22.1406 616.3281,21.5313 L616.3281,20.6406 L612.3594,20.6406 L612.3594,23.0938 L613.8438,23.0938 Q613.8438,22.4375 613.9688,22.25 Q614.2344,21.8438 614.7031,21.8438 Q615.0781,21.8438 615.3125,22.1016 Q615.5469,22.3594 615.5469,22.9688 L615.5469,24.9375 Q615.5469,25.4844 615.4219,25.6719 Q615.1563,26.0625 614.7031,26.0625 Q614.2344,26.0625 613.9688,25.6563 Q613.8438,25.4688 613.8438,24.7969 L612.3594,24.7969 Z"/><text x="627.5" y="28.91" fill="#50237F" font-family="sans-serif" font-size="12" lengthAdjust="spacingAndGlyphs" textLength="65">DeviceState</text><line style="stroke:#000;stroke-width:1.5" x1="599.5" x2="694.5" y1="40" y2="40"/><text x="604.5" y="55.419" fill="#000" font-family="sans-serif" font-size="11" lengthAdjust="spacingAndGlyphs" textLength="15">OK</text><text x="604.5" y="69.255" fill="#000" font-family="sans-serif" font-size="11" lengthAdjust="spacingAndGlyphs" textLength="23">INFO</text><text x="604.5" y="83.091" fill="#000" font-family="sans-serif" font-size="11" lengthAdjust="spacingAndGlyphs" textLength="32">WARN</text><text x="604.5" y="96.927" fill="#000" font-family="sans-serif" font-size="11" lengthAdjust="spacingAndGlyphs" textLength="35">ERROR</text><text x="604.5" y="110.763" fill="#000" font-family="sans-serif" font-size="11" lengthAdjust="spacingAndGlyphs" textLength="53">UNKNOWN</text><line style="stroke:#000;stroke-width:1.5" x1="599.5" x2="694.5" y1="117.18" y2="117.18"/><rect id="MessagePayload" width="121" height="82.602" x="442.5" y="25" fill="#F5F5F5" filter="url(#favqp4oi5x2wy)" style="stroke:#000;stroke-width:1.5"/><text x="455.5" y="42.457" fill="#50237F" font-family="sans-serif" font-size="12" lengthAdjust="spacingAndGlyphs" textLength="95">MessagePayload</text><line style="stroke:#000;stroke-width:1.5" x1="443.5" x2="562.5" y1="50.094" y2="50.094"/><text x="448.5" y="65.513" fill="#000" font-family="sans-serif" font-size="11" lengthAdjust="spacingAndGlyphs" textLength="101">content-spec : String</text><text x="448.5" y="79.349" fill="#000" font-family="sans-serif" font-size="11" lengthAdjust="spacingAndGlyphs" textLength="74">device : Device</text><text x="448.5" y="93.185" fill="#000" font-family="sans-serif" font-size="11" lengthAdjust="spacingAndGlyphs" textLength="109">messages : Messages</text><line style="stroke:#000;stroke-width:1.5" x1="443.5" x2="562.5" y1="99.602" y2="99.602"/><rect id="Message" width="140" height="193.289" x="520" y="203" fill="#F5F5F5" filter="url(#favqp4oi5x2wy)" style="stroke:#000;stroke-width:1.5"/><text x="564.5" y="220.457" fill="#50237F" font-family="sans-serif" font-size="12" lengthAdjust="spacingAndGlyphs" textLength="51">Message</text><line style="stroke:#000;stroke-width:1.5" x1="521" x2="659" y1="228.094" y2="228.094"/><text x="526" y="243.513" fill="#000" font-family="sans-serif" font-size="11" lengthAdjust="spacingAndGlyphs" textLength="61">code : String</text><text x="526" y="257.349" fill="#000" font-family="sans-serif" font-size="11" lengthAdjust="spacingAndGlyphs" textLength="114">description[0..1] : String</text><text x="526" y="271.185" fill="#000" font-family="sans-serif" font-size="11" lengthAdjust="spacingAndGlyphs" textLength="78">hint[0..1] : String</text><text x="526" y="285.021" fill="#000" font-family="sans-serif" font-size="11" lengthAdjust="spacingAndGlyphs" textLength="87">origin[0..1] : String</text><text x="526" y="298.856" fill="#000" font-family="sans-serif" font-size="11" lengthAdjust="spacingAndGlyphs" textLength="112">severity[0..1] : Severity</text><text x="526" y="312.692" fill="#000" font-family="sans-serif" font-size="11" lengthAdjust="spacingAndGlyphs" textLength="102">source[0..1] : Source</text><text x="526" y="326.528" fill="#000" font-family="sans-serif" font-size="11" lengthAdjust="spacingAndGlyphs" textLength="82">state[0..1] : State</text><text x="526" y="340.364" fill="#000" font-family="sans-serif" font-size="11" lengthAdjust="spacingAndGlyphs" textLength="77">title[0..1] : String</text><text x="526" y="354.2" fill="#000" font-family="sans-serif" font-size="11" lengthAdjust="spacingAndGlyphs" textLength="40">ts : Date</text><text x="526" y="368.036" fill="#000" font-family="sans-serif" font-size="11" lengthAdjust="spacingAndGlyphs" textLength="78">type[0..1] : Type</text><text x="526" y="381.872" fill="#000" font-family="sans-serif" font-size="11" lengthAdjust="spacingAndGlyphs" textLength="128">additionalData[0..1]: Object</text><line style="stroke:#000;stroke-width:1.5" x1="521" x2="659" y1="388.289" y2="388.289"/><rect id="Severity" width="74" height="103.344" x="6" y="15" fill="#F5F5F5" filter="url(#favqp4oi5x2wy)" style="stroke:#000;stroke-width:1.5"/><ellipse cx="21" cy="31" fill="#FFF" rx="11" ry="11" style="stroke:#000;stroke-width:1"/><path d="M19.8594,31.7969 L19.8594,34.2969 L24.1875,34.2969 L24.1875,33.375 Q24.1875,32.7656 24.4297,32.5 Q24.6719,32.2344 25.0469,32.2344 Q25.4219,32.2344 25.6563,32.5 Q25.8906,32.7656 25.8906,33.375 L25.8906,36 L17.8906,36 Q17.2656,36 17.0078,35.7656 Q16.75,35.5313 16.75,35.1406 Q16.75,34.7656 17.0156,34.5313 Q17.2813,34.2969 17.8906,34.2969 L18.1563,34.2969 L18.1563,27.6406 L17.8906,27.6406 Q17.2656,27.6406 17.0078,27.4063 Q16.75,27.1719 16.75,26.7813 Q16.75,26.4063 17.0078,26.1719 Q17.2656,25.9375 17.8906,25.9375 L25.5156,25.9375 L25.5156,28.5313 Q25.5156,29.1406 25.2891,29.3984 Q25.0625,29.6563 24.6719,29.6563 Q24.2969,29.6563 24.0625,29.3984 Q23.8281,29.1406 23.8281,28.5313 L23.8281,27.6406 L19.8594,27.6406 L19.8594,30.0938 L21.3438,30.0938 Q21.3438,29.4375 21.4688,29.25 Q21.7344,28.8438 22.2031,28.8438 Q22.5781,28.8438 22.8125,29.1016 Q23.0469,29.3594 23.0469,29.9688 L23.0469,31.9375 Q23.0469,32.4844 22.9219,32.6719 Q22.6563,33.0625 22.2031,33.0625 Q21.7344,33.0625 21.4688,32.6563 Q21.3438,32.4688 21.3438,31.7969 L19.8594,31.7969 Z"/><text x="35" y="35.91" fill="#50237F" font-family="sans-serif" font-size="12" lengthAdjust="spacingAndGlyphs" textLength="42">Severity</text><line style="stroke:#000;stroke-width:1.5" x1="7" x2="79" y1="47" y2="47"/><text x="12" y="62.419" fill="#000" font-family="sans-serif" font-size="11" lengthAdjust="spacingAndGlyphs" textLength="24">HIGH</text><text x="12" y="76.255" fill="#000" font-family="sans-serif" font-size="11" lengthAdjust="spacingAndGlyphs" textLength="38">MEDIUM</text><text x="12" y="90.091" fill="#000" font-family="sans-serif" font-size="11" lengthAdjust="spacingAndGlyphs" textLength="24">LOW</text><text x="12" y="103.927" fill="#000" font-family="sans-serif" font-size="11" lengthAdjust="spacingAndGlyphs" textLength="53">UNKNOWN</text><line style="stroke:#000;stroke-width:1.5" x1="7" x2="79" y1="110.344" y2="110.344"/><rect id="State" width="60" height="75.672" x="115" y="28.5" fill="#F5F5F5" filter="url(#favqp4oi5x2wy)" style="stroke:#000;stroke-width:1.5"/><ellipse cx="130" cy="44.5" fill="#FFF" rx="11" ry="11" style="stroke:#000;stroke-width:1"/><path d="M128.8594,45.2969 L128.8594,47.7969 L133.1875,47.7969 L133.1875,46.875 Q133.1875,46.2656 133.4297,46 Q133.6719,45.7344 134.0469,45.7344 Q134.4219,45.7344 134.6563,46 Q134.8906,46.2656 134.8906,46.875 L134.8906,49.5 L126.8906,49.5 Q126.2656,49.5 126.0078,49.2656 Q125.75,49.0313 125.75,48.6406 Q125.75,48.2656 126.0156,48.0313 Q126.2813,47.7969 126.8906,47.7969 L127.1563,47.7969 L127.1563,41.1406 L126.8906,41.1406 Q126.2656,41.1406 126.0078,40.9063 Q125.75,40.6719 125.75,40.2813 Q125.75,39.9063 126.0078,39.6719 Q126.2656,39.4375 126.8906,39.4375 L134.5156,39.4375 L134.5156,42.0313 Q134.5156,42.6406 134.2891,42.8984 Q134.0625,43.1563 133.6719,43.1563 Q133.2969,43.1563 133.0625,42.8984 Q132.8281,42.6406 132.8281,42.0313 L132.8281,41.1406 L128.8594,41.1406 L128.8594,43.5938 L130.3438,43.5938 Q130.3438,42.9375 130.4688,42.75 Q130.7344,42.3438 131.2031,42.3438 Q131.5781,42.3438 131.8125,42.6016 Q132.0469,42.8594 132.0469,43.4688 L132.0469,45.4375 Q132.0469,45.9844 131.9219,46.1719 Q131.6563,46.5625 131.2031,46.5625 Q130.7344,46.5625 130.4688,46.1563 Q130.3438,45.9688 130.3438,45.2969 L128.8594,45.2969 Z"/><text x="144" y="49.41" fill="#50237F" font-family="sans-serif" font-size="12" lengthAdjust="spacingAndGlyphs" textLength="28">State</text><line style="stroke:#000;stroke-width:1.5" x1="116" x2="174" y1="60.5" y2="60.5"/><text x="121" y="75.919" fill="#000" font-family="sans-serif" font-size="11" lengthAdjust="spacingAndGlyphs" textLength="23">NEW</text><text x="121" y="89.755" fill="#000" font-family="sans-serif" font-size="11" lengthAdjust="spacingAndGlyphs" textLength="33">ENDED</text><line style="stroke:#000;stroke-width:1.5" x1="116" x2="174" y1="96.172" y2="96.172"/><rect id="Source" width="97" height="75.672" x="210.5" y="28.5" fill="#F5F5F5" filter="url(#favqp4oi5x2wy)" style="stroke:#000;stroke-width:1.5"/><ellipse cx="237.2" cy="44.5" fill="#FFF" rx="11" ry="11" style="stroke:#000;stroke-width:1"/><path d="M236.0594,45.2969 L236.0594,47.7969 L240.3875,47.7969 L240.3875,46.875 Q240.3875,46.2656 240.6297,46 Q240.8719,45.7344 241.2469,45.7344 Q241.6219,45.7344 241.8563,46 Q242.0906,46.2656 242.0906,46.875 L242.0906,49.5 L234.0906,49.5 Q233.4656,49.5 233.2078,49.2656 Q232.95,49.0313 232.95,48.6406 Q232.95,48.2656 233.2156,48.0313 Q233.4813,47.7969 234.0906,47.7969 L234.3563,47.7969 L234.3563,41.1406 L234.0906,41.1406 Q233.4656,41.1406 233.2078,40.9063 Q232.95,40.6719 232.95,40.2813 Q232.95,39.9063 233.2078,39.6719 Q233.4656,39.4375 234.0906,39.4375 L241.7156,39.4375 L241.7156,42.0313 Q241.7156,42.6406 241.4891,42.8984 Q241.2625,43.1563 240.8719,43.1563 Q240.4969,43.1563 240.2625,42.8984 Q240.0281,42.6406 240.0281,42.0313 L240.0281,41.1406 L236.0594,41.1406 L236.0594,43.5938 L237.5438,43.5938 Q237.5438,42.9375 237.6688,42.75 Q237.9344,42.3438 238.4031,42.3438 Q238.7781,42.3438 239.0125,42.6016 Q239.2469,42.8594 239.2469,43.4688 L239.2469,45.4375 Q239.2469,45.9844 239.1219,46.1719 Q238.8563,46.5625 238.4031,46.5625 Q237.9344,46.5625 237.6688,46.1563 Q237.5438,45.9688 237.5438,45.2969 L236.0594,45.2969 Z"/><text x="253.8" y="49.41" fill="#50237F" font-family="sans-serif" font-size="12" lengthAdjust="spacingAndGlyphs" textLength="39">Source</text><line style="stroke:#000;stroke-width:1.5" x1="211.5" x2="306.5" y1="60.5" y2="60.5"/><text x="216.5" y="75.919" fill="#000" font-family="sans-serif" font-size="11" lengthAdjust="spacingAndGlyphs" textLength="36">DEVICE</text><text x="216.5" y="89.755" fill="#000" font-family="sans-serif" font-size="11" lengthAdjust="spacingAndGlyphs" textLength="85">TECHNICAL_INFO</text><line style="stroke:#000;stroke-width:1.5" x1="211.5" x2="306.5" y1="96.172" y2="96.172"/><rect id="Type" width="65" height="103.344" x="342.5" y="15" fill="#F5F5F5" filter="url(#favqp4oi5x2wy)" style="stroke:#000;stroke-width:1.5"/><ellipse cx="360.65" cy="31" fill="#FFF" rx="11" ry="11" style="stroke:#000;stroke-width:1"/><path d="M359.5094,31.7969 L359.5094,34.2969 L363.8375,34.2969 L363.8375,33.375 Q363.8375,32.7656 364.0797,32.5 Q364.3219,32.2344 364.6969,32.2344 Q365.0719,32.2344 365.3063,32.5 Q365.5406,32.7656 365.5406,33.375 L365.5406,36 L357.5406,36 Q356.9156,36 356.6578,35.7656 Q356.4,35.5313 356.4,35.1406 Q356.4,34.7656 356.6656,34.5313 Q356.9313,34.2969 357.5406,34.2969 L357.8063,34.2969 L357.8063,27.6406 L357.5406,27.6406 Q356.9156,27.6406 356.6578,27.4063 Q356.4,27.1719 356.4,26.7813 Q356.4,26.4063 356.6578,26.1719 Q356.9156,25.9375 357.5406,25.9375 L365.1656,25.9375 L365.1656,28.5313 Q365.1656,29.1406 364.9391,29.3984 Q364.7125,29.6563 364.3219,29.6563 Q363.9469,29.6563 363.7125,29.3984 Q363.4781,29.1406 363.4781,28.5313 L363.4781,27.6406 L359.5094,27.6406 L359.5094,30.0938 L360.9938,30.0938 Q360.9938,29.4375 361.1188,29.25 Q361.3844,28.8438 361.8531,28.8438 Q362.2281,28.8438 362.4625,29.1016 Q362.6969,29.3594 362.6969,29.9688 L362.6969,31.9375 Q362.6969,32.4844 362.5719,32.6719 Q362.3063,33.0625 361.8531,33.0625 Q361.3844,33.0625 361.1188,32.6563 Q360.9938,32.4688 360.9938,31.7969 L359.5094,31.7969 Z"/><text x="375.35" y="35.91" fill="#50237F" font-family="sans-serif" font-size="12" lengthAdjust="spacingAndGlyphs" textLength="26">Type</text><line style="stroke:#000;stroke-width:1.5" x1="343.5" x2="406.5" y1="47" y2="47"/><text x="348.5" y="62.419" fill="#000" font-family="sans-serif" font-size="11" lengthAdjust="spacingAndGlyphs" textLength="23">INFO</text><text x="348.5" y="76.255" fill="#000" font-family="sans-serif" font-size="11" lengthAdjust="spacingAndGlyphs" textLength="49">WARNING</text><text x="348.5" y="90.091" fill="#000" font-family="sans-serif" font-size="11" lengthAdjust="spacingAndGlyphs" textLength="35">ERROR</text><text x="348.5" y="103.927" fill="#000" font-family="sans-serif" font-size="11" lengthAdjust="spacingAndGlyphs" textLength="53">UNKNOWN</text><line style="stroke:#000;stroke-width:1.5" x1="343.5" x2="406.5" y1="110.344" y2="110.344"/><path id="MessagePayload-Device" fill="none" d="M487.571,108.001 C472.339,147.984 449.06,209.092 432.995,251.263" style="stroke:#000;stroke-width:1"/><path id="MessagePayload-Message" fill="none" d="M522.872,120.264 C532.084,144.724 543.326,174.573 553.956,202.796" style="stroke:#000;stroke-width:1"/><polygon fill="#FFF" points="518.254 108.001 516.625 115.026 522.483 119.231 524.112 112.206 518.254 108.001" style="stroke:#000;stroke-width:1"/><text x="542" y="169.495" fill="#000" font-family="sans-serif" font-size="13" lengthAdjust="spacingAndGlyphs" textLength="60">Messages</text><text x="513.054" y="129.133" fill="#000" font-family="sans-serif" font-size="13" lengthAdjust="spacingAndGlyphs" textLength="7">1</text><text x="530.431" y="192.277" fill="#000" font-family="sans-serif" font-size="13" lengthAdjust="spacingAndGlyphs" textLength="20">1..*</text><rect style="stroke:#fff;stroke-width:1" width="301" height="127" x="404" y="414" fill="#FFF" rx="5" ry="5"/><svg x="410" y="419"><rect width="288" height="116.58" x=".5" y=".5" fill="#f5f5f5" stroke="#50237f" rx="5" ry="5"/><text x="514" y="731.381" fill="#000" font-family="sans-serif" font-size="10" font-weight="bold" lengthAdjust="spacingAndGlyphs" textLength="36" transform="translate(-504.5 -714.76)">Symbol</text><text x="556" y="731.381" fill="#000" font-family="sans-serif" font-size="10" font-weight="bold" lengthAdjust="spacingAndGlyphs" textLength="28" transform="translate(-504.5 -714.76)">Name</text><text x="637" y="731.381" fill="#000" font-family="sans-serif" font-size="10" font-weight="bold" lengthAdjust="spacingAndGlyphs" textLength="56" transform="translate(-504.5 -714.76)">Description</text><text x="556" y="743.959" fill="#000" font-family="sans-serif" font-size="10" lengthAdjust="spacingAndGlyphs" textLength="24" transform="translate(-504.5 -712.11)">Class</text><text x="637" y="743.959" fill="#000" font-family="sans-serif" font-size="10" lengthAdjust="spacingAndGlyphs" textLength="86" transform="translate(-504.5 -712.11)">A complex Object</text><text x="556" y="761.959" fill="#000" font-family="sans-serif" font-size="10" lengthAdjust="spacingAndGlyphs" textLength="58" transform="translate(-504.5 -712.25)">Aggregation</text><text x="637" y="761.959" fill="#000" font-family="sans-serif" font-size="10" lengthAdjust="spacingAndGlyphs" textLength="107" transform="translate(-504.5 -712.09)">List of Objects as Array</text><text x="556" y="779.959" fill="#000" font-family="sans-serif" font-size="10" lengthAdjust="spacingAndGlyphs" textLength="59" transform="translate(-504.5 -712.19)">Composition</text><text x="637" y="779.959" fill="#000" font-family="sans-serif" font-size="10" lengthAdjust="spacingAndGlyphs" textLength="104" transform="translate(-504.5 -712.09)">List of Objects as Map</text><text x="556" y="797.959" fill="#000" font-family="sans-serif" font-size="10" lengthAdjust="spacingAndGlyphs" textLength="54" transform="translate(-504.5 -712.39)">Association</text><text x="637" y="797.959" fill="#000" font-family="sans-serif" font-size="10" lengthAdjust="spacingAndGlyphs" textLength="126" transform="translate(-504.5 -712.11)">A complex Object as child</text><text x="556" y="815.959" fill="#000" font-family="sans-serif" font-size="10" lengthAdjust="spacingAndGlyphs" textLength="69" transform="translate(-504.5 -712.14)">Specialization</text><text x="637" y="815.959" fill="#000" font-family="sans-serif" font-size="10" lengthAdjust="spacingAndGlyphs" textLength="147" transform="translate(-504.5 -712.09)">An extension of another Object</text><line x1="6.5" x2="282.5" y1="20.078" y2="20.078" stroke="#000"/><line x1="6.5" x2="282.5" y1="38.078" y2="38.078" stroke="#000"/><line x1="6.5" x2="282.5" y1="56.078" y2="56.078" stroke="#000"/><line x1="6.5" x2="282.5" y1="74.078" y2="74.078" stroke="#000"/><line x1="6.5" x2="282.5" y1="92.078" y2="92.078" stroke="#000"/><line x1="48.5" x2="48.5" y1="7.5" y2="110.08" stroke="#000"/><line x1="129.5" x2="129.5" y1="7.5" y2="110.08" stroke="#000"/><path fill="none" stroke="#000" stroke-width="1" d="m20.871 26.751h12m-11.5-3.1729h11v11h-11z"/><g fill="none" stroke="#000" transform="translate(0 1.5453)"><path stroke-linecap="square" stroke-width="1" d="m24.935 47.446 5.6592-5.6592"/><rect width="4" height="3.961" x="20.869" y="47.512" ry="0"/><rect width="2" height="2" x="30.774" y="39.593" ry="0"/></g><path fill="none" stroke="#000" stroke-linecap="square" stroke-width="1" d="m21.038 88.97 11.784-11.784"/><g fill="none" stroke="#000"><path d="m25.986 93.638h6.7885v6.7885z" transform="translate(0 .78224)"/><path stroke-linecap="square" stroke-width="1" d="m19.701 106.75 9.6682-9.6682" transform="translate(0 .78224)"/></g><g fill="none" stroke="#000" transform="translate(0 1.3665)"><path stroke-linecap="square" stroke-width="1" d="m24.935 65.602 5.6592-5.6592"/><rect width="4" height="3.961" x="20.869" y="65.668" ry="0"/><rect width="2" height="2" x="30.774" y="57.795" ry="0"/></g></svg></g></svg>