<svg xmlns="http://www.w3.org/2000/svg" xmlns:xlink="http://www.w3.org/1999/xlink" width="1372" height="884" contentScriptType="application/ecmascript" contentStyleType="text/css" style="width:1372px;height:884px" preserveAspectRatio="none" version="1.1" viewBox="0 0 1372 884" zoomAndPan="magnify"><defs><filter id="fpmyswsdq6cgk" width="300%" height="300%" x="-1" y="-1"><feGaussianBlur result="blurOut" stdDeviation="2"/><feColorMatrix in="blurOut" result="blurOut2" type="matrix" values="0 0 0 0 0 0 0 0 0 0 0 0 0 0 0 0 0 0 .4 0"/><feOffset dx="4" dy="4" in="blurOut2" result="blurOut3"/><feBlend in="SourceGraphic" in2="blurOut3" mode="normal"/></filter></defs><g><rect id="Device" width="140" height="96.438" x="254.5" y="238" fill="#F5F5F5" filter="url(#fpmyswsdq6cgk)" style="stroke:#000;stroke-width:1.5"/><text x="306" y="255.457" fill="#50237F" font-family="sans-serif" font-size="12" lengthAdjust="spacingAndGlyphs" textLength="37">Device</text><line style="stroke:#000;stroke-width:1.5" x1="255.5" x2="393.5" y1="263.094" y2="263.094"/><text x="260.5" y="278.513" fill="#000" font-family="sans-serif" font-size="11" lengthAdjust="spacingAndGlyphs" textLength="42">id: String</text><text x="260.5" y="292.349" fill="#000" font-family="sans-serif" font-size="11" lengthAdjust="spacingAndGlyphs" textLength="84">mode[0..1]: String</text><text x="260.5" y="306.185" fill="#000" font-family="sans-serif" font-size="11" lengthAdjust="spacingAndGlyphs" textLength="112">state[0..1]: DeviceState</text><text x="260.5" y="320.021" fill="#000" font-family="sans-serif" font-size="11" lengthAdjust="spacingAndGlyphs" textLength="128">additionalData[0..1]: Object</text><line style="stroke:#000;stroke-width:1.5" x1="255.5" x2="393.5" y1="326.438" y2="326.438"/><rect id="Context" width="140" height="110.273" x="721.5" y="447" fill="#F5F5F5" filter="url(#fpmyswsdq6cgk)" style="stroke:#000;stroke-width:1.5"/><text x="771" y="464.457" fill="#50237F" font-family="sans-serif" font-size="12" lengthAdjust="spacingAndGlyphs" textLength="41">Context</text><line style="stroke:#000;stroke-width:1.5" x1="722.5" x2="860.5" y1="472.094" y2="472.094"/><text x="727.5" y="487.513" fill="#000" font-family="sans-serif" font-size="11" lengthAdjust="spacingAndGlyphs" textLength="80">limits[0..1]: Limits</text><text x="727.5" y="501.349" fill="#000" font-family="sans-serif" font-size="11" lengthAdjust="spacingAndGlyphs" textLength="114">namespace[0..1]: String</text><text x="727.5" y="515.185" fill="#000" font-family="sans-serif" font-size="11" lengthAdjust="spacingAndGlyphs" textLength="103">type[0..1]: ValueType</text><text x="727.5" y="529.02" fill="#000" font-family="sans-serif" font-size="11" lengthAdjust="spacingAndGlyphs" textLength="75">unit[0..1]: String</text><text x="727.5" y="542.856" fill="#000" font-family="sans-serif" font-size="11" lengthAdjust="spacingAndGlyphs" textLength="128">additionalData[0..1]: Object</text><line style="stroke:#000;stroke-width:1.5" x1="722.5" x2="860.5" y1="549.273" y2="549.273"/><rect id="Limits" width="156" height="110.273" x="713.5" y="618" fill="#F5F5F5" filter="url(#fpmyswsdq6cgk)" style="stroke:#000;stroke-width:1.5"/><text x="774.5" y="635.457" fill="#50237F" font-family="sans-serif" font-size="12" lengthAdjust="spacingAndGlyphs" textLength="34">Limits</text><line style="stroke:#000;stroke-width:1.5" x1="714.5" x2="868.5" y1="643.094" y2="643.094"/><text x="719.5" y="658.513" fill="#000" font-family="sans-serif" font-size="11" lengthAdjust="spacingAndGlyphs" textLength="142">lowerError[0..1]: Float | [Float]</text><text x="719.5" y="672.349" fill="#000" font-family="sans-serif" font-size="11" lengthAdjust="spacingAndGlyphs" textLength="144">lowerWarn[0..1]: Float | [Float]</text><text x="719.5" y="686.185" fill="#000" font-family="sans-serif" font-size="11" lengthAdjust="spacingAndGlyphs" textLength="121">target[0..1]: Float | [Float]</text><text x="719.5" y="700.02" fill="#000" font-family="sans-serif" font-size="11" lengthAdjust="spacingAndGlyphs" textLength="142">upperError[0..1]: Float | [Float]</text><text x="719.5" y="713.856" fill="#000" font-family="sans-serif" font-size="11" lengthAdjust="spacingAndGlyphs" textLength="144">upperWarn[0..1]: Float | [Float]</text><line style="stroke:#000;stroke-width:1.5" x1="714.5" x2="868.5" y1="720.273" y2="720.273"/><rect id="Series" width="210" height="68.766" x="896.5" y="467.5" fill="#F5F5F5" filter="url(#fpmyswsdq6cgk)" style="stroke:#000;stroke-width:1.5"/><text x="983.5" y="484.957" fill="#50237F" font-family="sans-serif" font-size="12" lengthAdjust="spacingAndGlyphs" textLength="36">Series</text><line style="stroke:#000;stroke-width:1.5" x1="897.5" x2="1105.5" y1="492.594" y2="492.594"/><text x="902.5" y="508.013" fill="#000" font-family="sans-serif" font-size="11" lengthAdjust="spacingAndGlyphs" textLength="92">time[0..1]: [Number]</text><text x="902.5" y="521.849" fill="#000" font-family="sans-serif" font-size="11" lengthAdjust="spacingAndGlyphs" textLength="198">&lt;values&gt;[1..*]: [Boolean | Number | String]</text><line style="stroke:#000;stroke-width:1.5" x1="897.5" x2="1105.5" y1="528.266" y2="528.266"/><rect id="Part" width="140" height="124.109" x="429.5" y="224" fill="#F5F5F5" filter="url(#fpmyswsdq6cgk)" style="stroke:#000;stroke-width:1.5"/><text x="488.5" y="241.457" fill="#50237F" font-family="sans-serif" font-size="12" lengthAdjust="spacingAndGlyphs" textLength="22">Part</text><line style="stroke:#000;stroke-width:1.5" x1="430.5" x2="568.5" y1="249.094" y2="249.094"/><text x="435.5" y="264.513" fill="#000" font-family="sans-serif" font-size="11" lengthAdjust="spacingAndGlyphs" textLength="82">code[0..1]: String</text><text x="435.5" y="278.349" fill="#000" font-family="sans-serif" font-size="11" lengthAdjust="spacingAndGlyphs" textLength="66">id[0..1]: String</text><text x="435.5" y="292.185" fill="#000" font-family="sans-serif" font-size="11" lengthAdjust="spacingAndGlyphs" textLength="94">type[0..1]: PartType</text><text x="435.5" y="306.021" fill="#000" font-family="sans-serif" font-size="11" lengthAdjust="spacingAndGlyphs" textLength="87">typeId[0..1]: String</text><text x="435.5" y="319.856" fill="#000" font-family="sans-serif" font-size="11" lengthAdjust="spacingAndGlyphs" textLength="87">result[0..1]: Result</text><text x="435.5" y="333.692" fill="#000" font-family="sans-serif" font-size="11" lengthAdjust="spacingAndGlyphs" textLength="128">additionalData[0..1]: Object</text><line style="stroke:#000;stroke-width:1.5" x1="430.5" x2="568.5" y1="340.109" y2="340.109"/><rect id="DeviceState" width="97" height="117.18" x="6" y="8" fill="#F5F5F5" filter="url(#fpmyswsdq6cgk)" style="stroke:#000;stroke-width:1.5"/><ellipse cx="21" cy="24" fill="#FFF" rx="11" ry="11" style="stroke:#000;stroke-width:1"/><path d="M19.8594,24.7969 L19.8594,27.2969 L24.1875,27.2969 L24.1875,26.375 Q24.1875,25.7656 24.4297,25.5 Q24.6719,25.2344 25.0469,25.2344 Q25.4219,25.2344 25.6563,25.5 Q25.8906,25.7656 25.8906,26.375 L25.8906,29 L17.8906,29 Q17.2656,29 17.0078,28.7656 Q16.75,28.5313 16.75,28.1406 Q16.75,27.7656 17.0156,27.5313 Q17.2813,27.2969 17.8906,27.2969 L18.1563,27.2969 L18.1563,20.6406 L17.8906,20.6406 Q17.2656,20.6406 17.0078,20.4063 Q16.75,20.1719 16.75,19.7813 Q16.75,19.4063 17.0078,19.1719 Q17.2656,18.9375 17.8906,18.9375 L25.5156,18.9375 L25.5156,21.5313 Q25.5156,22.1406 25.2891,22.3984 Q25.0625,22.6563 24.6719,22.6563 Q24.2969,22.6563 24.0625,22.3984 Q23.8281,22.1406 23.8281,21.5313 L23.8281,20.6406 L19.8594,20.6406 L19.8594,23.0938 L21.3438,23.0938 Q21.3438,22.4375 21.4688,22.25 Q21.7344,21.8438 22.2031,21.8438 Q22.5781,21.8438 22.8125,22.1016 Q23.0469,22.3594 23.0469,22.9688 L23.0469,24.9375 Q23.0469,25.4844 22.9219,25.6719 Q22.6563,26.0625 22.2031,26.0625 Q21.7344,26.0625 21.4688,25.6563 Q21.3438,25.4688 21.3438,24.7969 L19.8594,24.7969 Z"/><text x="35" y="28.91" fill="#50237F" font-family="sans-serif" font-size="12" lengthAdjust="spacingAndGlyphs" textLength="65">DeviceState</text><line style="stroke:#000;stroke-width:1.5" x1="7" x2="102" y1="40" y2="40"/><text x="12" y="55.419" fill="#000" font-family="sans-serif" font-size="11" lengthAdjust="spacingAndGlyphs" textLength="15">OK</text><text x="12" y="69.255" fill="#000" font-family="sans-serif" font-size="11" lengthAdjust="spacingAndGlyphs" textLength="23">INFO</text><text x="12" y="83.091" fill="#000" font-family="sans-serif" font-size="11" lengthAdjust="spacingAndGlyphs" textLength="32">WARN</text><text x="12" y="96.927" fill="#000" font-family="sans-serif" font-size="11" lengthAdjust="spacingAndGlyphs" textLength="35">ERROR</text><text x="12" y="110.763" fill="#000" font-family="sans-serif" font-size="11" lengthAdjust="spacingAndGlyphs" textLength="53">UNKNOWN</text><line style="stroke:#000;stroke-width:1.5" x1="7" x2="102" y1="117.18" y2="117.18"/><rect id="Result" width="68" height="89.508" x="138.5" y="21.5" fill="#F5F5F5" filter="url(#fpmyswsdq6cgk)" style="stroke:#000;stroke-width:1.5"/><ellipse cx="153.5" cy="37.5" fill="#FFF" rx="11" ry="11" style="stroke:#000;stroke-width:1"/><path d="M152.3594,38.2969 L152.3594,40.7969 L156.6875,40.7969 L156.6875,39.875 Q156.6875,39.2656 156.9297,39 Q157.1719,38.7344 157.5469,38.7344 Q157.9219,38.7344 158.1563,39 Q158.3906,39.2656 158.3906,39.875 L158.3906,42.5 L150.3906,42.5 Q149.7656,42.5 149.5078,42.2656 Q149.25,42.0313 149.25,41.6406 Q149.25,41.2656 149.5156,41.0313 Q149.7813,40.7969 150.3906,40.7969 L150.6563,40.7969 L150.6563,34.1406 L150.3906,34.1406 Q149.7656,34.1406 149.5078,33.9063 Q149.25,33.6719 149.25,33.2813 Q149.25,32.9063 149.5078,32.6719 Q149.7656,32.4375 150.3906,32.4375 L158.0156,32.4375 L158.0156,35.0313 Q158.0156,35.6406 157.7891,35.8984 Q157.5625,36.1563 157.1719,36.1563 Q156.7969,36.1563 156.5625,35.8984 Q156.3281,35.6406 156.3281,35.0313 L156.3281,34.1406 L152.3594,34.1406 L152.3594,36.5938 L153.8438,36.5938 Q153.8438,35.9375 153.9688,35.75 Q154.2344,35.3438 154.7031,35.3438 Q155.0781,35.3438 155.3125,35.6016 Q155.5469,35.8594 155.5469,36.4688 L155.5469,38.4375 Q155.5469,38.9844 155.4219,39.1719 Q155.1563,39.5625 154.7031,39.5625 Q154.2344,39.5625 153.9688,39.1563 Q153.8438,38.9688 153.8438,38.2969 L152.3594,38.2969 Z"/><text x="167.5" y="42.41" fill="#50237F" font-family="sans-serif" font-size="12" lengthAdjust="spacingAndGlyphs" textLength="36">Result</text><line style="stroke:#000;stroke-width:1.5" x1="139.5" x2="205.5" y1="53.5" y2="53.5"/><text x="144.5" y="68.919" fill="#000" font-family="sans-serif" font-size="11" lengthAdjust="spacingAndGlyphs" textLength="15">OK</text><text x="144.5" y="82.755" fill="#000" font-family="sans-serif" font-size="11" lengthAdjust="spacingAndGlyphs" textLength="22">NOK</text><text x="144.5" y="96.591" fill="#000" font-family="sans-serif" font-size="11" lengthAdjust="spacingAndGlyphs" textLength="53">UNKNOWN</text><line style="stroke:#000;stroke-width:1.5" x1="139.5" x2="205.5" y1="103.008" y2="103.008"/><rect id="PartType" width="80" height="75.672" x="14.5" y="248" fill="#F5F5F5" filter="url(#fpmyswsdq6cgk)" style="stroke:#000;stroke-width:1.5"/><ellipse cx="29.5" cy="264" fill="#FFF" rx="11" ry="11" style="stroke:#000;stroke-width:1"/><path d="M28.3594,264.7969 L28.3594,267.2969 L32.6875,267.2969 L32.6875,266.375 Q32.6875,265.7656 32.9297,265.5 Q33.1719,265.2344 33.5469,265.2344 Q33.9219,265.2344 34.1563,265.5 Q34.3906,265.7656 34.3906,266.375 L34.3906,269 L26.3906,269 Q25.7656,269 25.5078,268.7656 Q25.25,268.5313 25.25,268.1406 Q25.25,267.7656 25.5156,267.5313 Q25.7813,267.2969 26.3906,267.2969 L26.6563,267.2969 L26.6563,260.6406 L26.3906,260.6406 Q25.7656,260.6406 25.5078,260.4063 Q25.25,260.1719 25.25,259.7813 Q25.25,259.4063 25.5078,259.1719 Q25.7656,258.9375 26.3906,258.9375 L34.0156,258.9375 L34.0156,261.5313 Q34.0156,262.1406 33.7891,262.3984 Q33.5625,262.6563 33.1719,262.6563 Q32.7969,262.6563 32.5625,262.3984 Q32.3281,262.1406 32.3281,261.5313 L32.3281,260.6406 L28.3594,260.6406 L28.3594,263.0938 L29.8438,263.0938 Q29.8438,262.4375 29.9688,262.25 Q30.2344,261.8438 30.7031,261.8438 Q31.0781,261.8438 31.3125,262.1016 Q31.5469,262.3594 31.5469,262.9688 L31.5469,264.9375 Q31.5469,265.4844 31.4219,265.6719 Q31.1563,266.0625 30.7031,266.0625 Q30.2344,266.0625 29.9688,265.6563 Q29.8438,265.4688 29.8438,264.7969 L28.3594,264.7969 Z"/><text x="43.5" y="268.91" fill="#50237F" font-family="sans-serif" font-size="12" lengthAdjust="spacingAndGlyphs" textLength="48">PartType</text><line style="stroke:#000;stroke-width:1.5" x1="15.5" x2="93.5" y1="280" y2="280"/><text x="20.5" y="295.419" fill="#000" font-family="sans-serif" font-size="11" lengthAdjust="spacingAndGlyphs" textLength="36">SINGLE</text><text x="20.5" y="309.255" fill="#000" font-family="sans-serif" font-size="11" lengthAdjust="spacingAndGlyphs" textLength="35">BATCH</text><line style="stroke:#000;stroke-width:1.5" x1="15.5" x2="93.5" y1="315.672" y2="315.672"/><rect id="ValueType" width="89" height="131.016" x="130" y="220.5" fill="#F5F5F5" filter="url(#fpmyswsdq6cgk)" style="stroke:#000;stroke-width:1.5"/><ellipse cx="145" cy="236.5" fill="#FFF" rx="11" ry="11" style="stroke:#000;stroke-width:1"/><path d="M143.8594,237.2969 L143.8594,239.7969 L148.1875,239.7969 L148.1875,238.875 Q148.1875,238.2656 148.4297,238 Q148.6719,237.7344 149.0469,237.7344 Q149.4219,237.7344 149.6563,238 Q149.8906,238.2656 149.8906,238.875 L149.8906,241.5 L141.8906,241.5 Q141.2656,241.5 141.0078,241.2656 Q140.75,241.0313 140.75,240.6406 Q140.75,240.2656 141.0156,240.0313 Q141.2813,239.7969 141.8906,239.7969 L142.1563,239.7969 L142.1563,233.1406 L141.8906,233.1406 Q141.2656,233.1406 141.0078,232.9063 Q140.75,232.6719 140.75,232.2813 Q140.75,231.9063 141.0078,231.6719 Q141.2656,231.4375 141.8906,231.4375 L149.5156,231.4375 L149.5156,234.0313 Q149.5156,234.6406 149.2891,234.8984 Q149.0625,235.1563 148.6719,235.1563 Q148.2969,235.1563 148.0625,234.8984 Q147.8281,234.6406 147.8281,234.0313 L147.8281,233.1406 L143.8594,233.1406 L143.8594,235.5938 L145.3438,235.5938 Q145.3438,234.9375 145.4688,234.75 Q145.7344,234.3438 146.2031,234.3438 Q146.5781,234.3438 146.8125,234.6016 Q147.0469,234.8594 147.0469,235.4688 L147.0469,237.4375 Q147.0469,237.9844 146.9219,238.1719 Q146.6563,238.5625 146.2031,238.5625 Q145.7344,238.5625 145.4688,238.1563 Q145.3438,237.9688 145.3438,237.2969 L143.8594,237.2969 Z"/><text x="159" y="241.41" fill="#50237F" font-family="sans-serif" font-size="12" lengthAdjust="spacingAndGlyphs" textLength="57">ValueType</text><line style="stroke:#000;stroke-width:1.5" x1="131" x2="218" y1="252.5" y2="252.5"/><text x="136" y="267.919" fill="#000" font-family="sans-serif" font-size="11" lengthAdjust="spacingAndGlyphs" textLength="40">BASE64</text><text x="136" y="281.755" fill="#000" font-family="sans-serif" font-size="11" lengthAdjust="spacingAndGlyphs" textLength="50">BOOLEAN</text><text x="136" y="295.591" fill="#000" font-family="sans-serif" font-size="11" lengthAdjust="spacingAndGlyphs" textLength="42">NUMBER</text><text x="136" y="309.427" fill="#000" font-family="sans-serif" font-size="11" lengthAdjust="spacingAndGlyphs" textLength="34">OTHER</text><text x="136" y="323.263" fill="#000" font-family="sans-serif" font-size="11" lengthAdjust="spacingAndGlyphs" textLength="19">REF</text><text x="136" y="337.099" fill="#000" font-family="sans-serif" font-size="11" lengthAdjust="spacingAndGlyphs" textLength="37">STRING</text><line style="stroke:#000;stroke-width:1.5" x1="131" x2="218" y1="343.516" y2="343.516"/><rect id="ProcessPayload" width="194" height="110.273" x="456.5" y="11.5" fill="#F5F5F5" filter="url(#fpmyswsdq6cgk)" style="stroke:#000;stroke-width:1.5"/><text x="508.5" y="28.957" fill="#50237F" font-family="sans-serif" font-size="12" lengthAdjust="spacingAndGlyphs" textLength="90">ProcessPayload</text><line style="stroke:#000;stroke-width:1.5" x1="457.5" x2="649.5" y1="36.594" y2="36.594"/><text x="462.5" y="52.013" fill="#000" font-family="sans-serif" font-size="11" lengthAdjust="spacingAndGlyphs" textLength="98">content-spec: String</text><text x="462.5" y="65.849" fill="#000" font-family="sans-serif" font-size="11" lengthAdjust="spacingAndGlyphs" textLength="71">device: Device</text><text x="462.5" y="79.685" fill="#000" font-family="sans-serif" font-size="11" lengthAdjust="spacingAndGlyphs" textLength="182">measurements: ProcessMeasurement</text><text x="462.5" y="93.52" fill="#000" font-family="sans-serif" font-size="11" lengthAdjust="spacingAndGlyphs" textLength="68">part[0..1]: Part</text><text x="462.5" y="107.356" fill="#000" font-family="sans-serif" font-size="11" lengthAdjust="spacingAndGlyphs" textLength="86">process: Process</text><line style="stroke:#000;stroke-width:1.5" x1="457.5" x2="649.5" y1="113.773" y2="113.773"/><rect id="Process" width="140" height="110.273" x="604.5" y="231" fill="#F5F5F5" filter="url(#fpmyswsdq6cgk)" style="stroke:#000;stroke-width:1.5"/><text x="651.5" y="248.457" fill="#50237F" font-family="sans-serif" font-size="12" lengthAdjust="spacingAndGlyphs" textLength="46">Process</text><line style="stroke:#000;stroke-width:1.5" x1="605.5" x2="743.5" y1="256.094" y2="256.094"/><text x="610.5" y="271.513" fill="#000" font-family="sans-serif" font-size="11" lengthAdjust="spacingAndGlyphs" textLength="105">externalId[0..1]: String</text><text x="610.5" y="285.349" fill="#000" font-family="sans-serif" font-size="11" lengthAdjust="spacingAndGlyphs" textLength="110">program[0..1]: Program</text><text x="610.5" y="299.185" fill="#000" font-family="sans-serif" font-size="11" lengthAdjust="spacingAndGlyphs" textLength="87">result[0..1]: Result</text><text x="610.5" y="313.021" fill="#000" font-family="sans-serif" font-size="11" lengthAdjust="spacingAndGlyphs" textLength="37">ts: Date</text><text x="610.5" y="326.856" fill="#000" font-family="sans-serif" font-size="11" lengthAdjust="spacingAndGlyphs" textLength="128">additionalData[0..1]: Object</text><line style="stroke:#000;stroke-width:1.5" x1="605.5" x2="743.5" y1="333.273" y2="333.273"/><rect id="ProcessMeasurement" width="179" height="165.617" x="837" y="203" fill="#F5F5F5" filter="url(#fpmyswsdq6cgk)" style="stroke:#000;stroke-width:1.5"/><text x="865.5" y="220.457" fill="#50237F" font-family="sans-serif" font-size="12" lengthAdjust="spacingAndGlyphs" textLength="122">ProcessMeasurement</text><line style="stroke:#000;stroke-width:1.5" x1="838" x2="1015" y1="228.094" y2="228.094"/><text x="843" y="243.513" fill="#000" font-family="sans-serif" font-size="11" lengthAdjust="spacingAndGlyphs" textLength="82">code[0..1]: String</text><text x="843" y="257.349" fill="#000" font-family="sans-serif" font-size="11" lengthAdjust="spacingAndGlyphs" textLength="120">context[0..1]: ContextList</text><text x="843" y="271.185" fill="#000" font-family="sans-serif" font-size="11" lengthAdjust="spacingAndGlyphs" textLength="84">name[0..1]: String</text><text x="843" y="285.021" fill="#000" font-family="sans-serif" font-size="11" lengthAdjust="spacingAndGlyphs" textLength="91">phase[0..1] ; String</text><text x="843" y="298.856" fill="#000" font-family="sans-serif" font-size="11" lengthAdjust="spacingAndGlyphs" textLength="87">result[0..1]: Result</text><text x="843" y="312.692" fill="#000" font-family="sans-serif" font-size="11" lengthAdjust="spacingAndGlyphs" textLength="67">series: Series</text><text x="843" y="326.528" fill="#000" font-family="sans-serif" font-size="11" lengthAdjust="spacingAndGlyphs" textLength="167">specialValues[0..1]: SpecialValues</text><text x="843" y="340.364" fill="#000" font-family="sans-serif" font-size="11" lengthAdjust="spacingAndGlyphs" textLength="37">ts: Date</text><text x="843" y="354.2" fill="#000" font-family="sans-serif" font-size="11" lengthAdjust="spacingAndGlyphs" textLength="128">additionalData[0..1]: Object</text><line style="stroke:#000;stroke-width:1.5" x1="838" x2="1015" y1="360.617" y2="360.617"/><rect id="Program" width="140" height="96.438" x="546.5" y="454" fill="#F5F5F5" filter="url(#fpmyswsdq6cgk)" style="stroke:#000;stroke-width:1.5"/><text x="592.5" y="471.457" fill="#50237F" font-family="sans-serif" font-size="12" lengthAdjust="spacingAndGlyphs" textLength="48">Program</text><line style="stroke:#000;stroke-width:1.5" x1="547.5" x2="685.5" y1="479.094" y2="479.094"/><text x="552.5" y="494.513" fill="#000" font-family="sans-serif" font-size="11" lengthAdjust="spacingAndGlyphs" textLength="42">id: String</text><text x="552.5" y="508.349" fill="#000" font-family="sans-serif" font-size="11" lengthAdjust="spacingAndGlyphs" textLength="128">lastChangeDate[0..1]: Date</text><text x="552.5" y="522.185" fill="#000" font-family="sans-serif" font-size="11" lengthAdjust="spacingAndGlyphs" textLength="84">name[0..1]: String</text><text x="552.5" y="536.02" fill="#000" font-family="sans-serif" font-size="11" lengthAdjust="spacingAndGlyphs" textLength="128">additionalData[0..1]: Object</text><line style="stroke:#000;stroke-width:1.5" x1="547.5" x2="685.5" y1="542.438" y2="542.438"/><rect id="SpecialValue" width="210" height="82.602" x="1141.5" y="460.5" fill="#F5F5F5" filter="url(#fpmyswsdq6cgk)" style="stroke:#000;stroke-width:1.5"/><text x="1210.5" y="477.957" fill="#50237F" font-family="sans-serif" font-size="12" lengthAdjust="spacingAndGlyphs" textLength="72">SpecialValue</text><line style="stroke:#000;stroke-width:1.5" x1="1142.5" x2="1350.5" y1="485.594" y2="485.594"/><text x="1147.5" y="501.013" fill="#000" font-family="sans-serif" font-size="11" lengthAdjust="spacingAndGlyphs" textLength="86">time[0..1]: Number</text><text x="1147.5" y="514.849" fill="#000" font-family="sans-serif" font-size="11" lengthAdjust="spacingAndGlyphs" textLength="84">name[0..1]: String</text><text x="1147.5" y="528.685" fill="#000" font-family="sans-serif" font-size="11" lengthAdjust="spacingAndGlyphs" textLength="198">value: &lt;String, Boolean | Number | String&gt;</text><line style="stroke:#000;stroke-width:1.5" x1="1142.5" x2="1350.5" y1="535.102" y2="535.102"/><path id="Context-Limits" fill="none" d="M791.5,557.403 C791.5,576.798 791.5,598.626 791.5,617.988" style="stroke:#000;stroke-width:1"/><text x="784.073" y="578.63" fill="#000" font-family="sans-serif" font-size="13" lengthAdjust="spacingAndGlyphs" textLength="7">1</text><text x="770.156" y="607.021" fill="#000" font-family="sans-serif" font-size="13" lengthAdjust="spacingAndGlyphs" textLength="20">0..*</text><path id="ProcessPayload-Device" fill="none" d="M496.599,121.544 C458.979,157.274 410.143,203.658 374.108,237.883" style="stroke:#000;stroke-width:1"/><path id="ProcessPayload-Part" fill="none" d="M540.082,121.544 C532.367,152.619 522.651,191.753 514.66,223.938" style="stroke:#000;stroke-width:1"/><path id="ProcessPayload-Process" fill="none" d="M583.566,121.544 C602.113,154.884 625.821,197.499 644.379,230.858" style="stroke:#000;stroke-width:1"/><path id="ProcessPayload-ProcessMeasurement" fill="none" d="M657.642,128.226 C714.004,161.091 782.922,201.278 836.87,232.736" style="stroke:#000;stroke-width:1"/><polygon fill="#FFF" points="646.181 121.544 649.35 128.022 656.548 127.588 653.379 121.111 646.181 121.544" style="stroke:#000;stroke-width:1"/><text x="729.5" y="169.495" fill="#000" font-family="sans-serif" font-size="13" lengthAdjust="spacingAndGlyphs" textLength="86">Measurements</text><text x="650.607" y="143.122" fill="#000" font-family="sans-serif" font-size="13" lengthAdjust="spacingAndGlyphs" textLength="7">1</text><text x="808.931" y="225.378" fill="#000" font-family="sans-serif" font-size="13" lengthAdjust="spacingAndGlyphs" textLength="20">0..*</text><path id="Process-Program" fill="none" d="M659.864,341.001 C650.434,375.795 638.293,420.59 629.257,453.929" style="stroke:#000;stroke-width:1"/><path id="ProcessMeasurement-Series" fill="none" d="M955.282,369.126 C967.262,403.308 980.498,441.076 989.725,467.401" style="stroke:#000;stroke-width:1"/><path id="ProcessMeasurement-Context" fill="none" d="M867.693,380.22 C853.325,402.997 838.422,426.62 825.648,446.869" style="stroke:#000;stroke-width:1"/><polygon fill="#000" points="874.692 369.126 868.107 372.066 868.289 379.275 874.874 376.335 874.692 369.126" style="stroke:#000;stroke-width:1"/><text x="855.5" y="413.495" fill="#000" font-family="sans-serif" font-size="13" lengthAdjust="spacingAndGlyphs" textLength="66">ContextList</text><text x="863.112" y="390.198" fill="#000" font-family="sans-serif" font-size="13" lengthAdjust="spacingAndGlyphs" textLength="7">1</text><text x="806.614" y="436.281" fill="#000" font-family="sans-serif" font-size="13" lengthAdjust="spacingAndGlyphs" textLength="22">0..1</text><path id="ProcessMeasurement-SpecialValue" fill="none" d="M1027.02,354.226 C1079.13,389.074 1141.06,430.485 1185.82,460.421" style="stroke:#000;stroke-width:1"/><polygon fill="#FFF" points="1016.06 346.895 1018.823 353.556 1026.034 353.567 1023.271 346.906 1016.06 346.895" style="stroke:#000;stroke-width:1"/><text x="1115.5" y="413.495" fill="#000" font-family="sans-serif" font-size="13" lengthAdjust="spacingAndGlyphs" textLength="83">SpecialValues</text><text x="1024.057" y="348.967" fill="#000" font-family="sans-serif" font-size="13" lengthAdjust="spacingAndGlyphs" textLength="7">1</text><text x="1154.114" y="449.767" fill="#000" font-family="sans-serif" font-size="13" lengthAdjust="spacingAndGlyphs" textLength="20">0..*</text><rect style="stroke:#fff;stroke-width:1" width="301" height="127" x="1060" y="746" fill="#FFF" rx="5" ry="5"/><svg x="1066" y="751"><rect width="288" height="116.58" x=".5" y=".5" fill="#f5f5f5" stroke="#50237f" rx="5" ry="5"/><text x="514" y="731.381" fill="#000" font-family="sans-serif" font-size="10" font-weight="bold" lengthAdjust="spacingAndGlyphs" textLength="36" transform="translate(-504.5 -714.76)">Symbol</text><text x="556" y="731.381" fill="#000" font-family="sans-serif" font-size="10" font-weight="bold" lengthAdjust="spacingAndGlyphs" textLength="28" transform="translate(-504.5 -714.76)">Name</text><text x="637" y="731.381" fill="#000" font-family="sans-serif" font-size="10" font-weight="bold" lengthAdjust="spacingAndGlyphs" textLength="56" transform="translate(-504.5 -714.76)">Description</text><text x="556" y="743.959" fill="#000" font-family="sans-serif" font-size="10" lengthAdjust="spacingAndGlyphs" textLength="24" transform="translate(-504.5 -712.11)">Class</text><text x="637" y="743.959" fill="#000" font-family="sans-serif" font-size="10" lengthAdjust="spacingAndGlyphs" textLength="86" transform="translate(-504.5 -712.11)">A complex Object</text><text x="556" y="761.959" fill="#000" font-family="sans-serif" font-size="10" lengthAdjust="spacingAndGlyphs" textLength="58" transform="translate(-504.5 -712.25)">Aggregation</text><text x="637" y="761.959" fill="#000" font-family="sans-serif" font-size="10" lengthAdjust="spacingAndGlyphs" textLength="107" transform="translate(-504.5 -712.09)">List of Objects as Array</text><text x="556" y="779.959" fill="#000" font-family="sans-serif" font-size="10" lengthAdjust="spacingAndGlyphs" textLength="59" transform="translate(-504.5 -712.19)">Composition</text><text x="637" y="779.959" fill="#000" font-family="sans-serif" font-size="10" lengthAdjust="spacingAndGlyphs" textLength="104" transform="translate(-504.5 -712.09)">List of Objects as Map</text><text x="556" y="797.959" fill="#000" font-family="sans-serif" font-size="10" lengthAdjust="spacingAndGlyphs" textLength="54" transform="translate(-504.5 -712.39)">Association</text><text x="637" y="797.959" fill="#000" font-family="sans-serif" font-size="10" lengthAdjust="spacingAndGlyphs" textLength="126" transform="translate(-504.5 -712.11)">A complex Object as child</text><text x="556" y="815.959" fill="#000" font-family="sans-serif" font-size="10" lengthAdjust="spacingAndGlyphs" textLength="69" transform="translate(-504.5 -712.14)">Specialization</text><text x="637" y="815.959" fill="#000" font-family="sans-serif" font-size="10" lengthAdjust="spacingAndGlyphs" textLength="147" transform="translate(-504.5 -712.09)">An extension of another Object</text><line x1="6.5" x2="282.5" y1="20.078" y2="20.078" stroke="#000"/><line x1="6.5" x2="282.5" y1="38.078" y2="38.078" stroke="#000"/><line x1="6.5" x2="282.5" y1="56.078" y2="56.078" stroke="#000"/><line x1="6.5" x2="282.5" y1="74.078" y2="74.078" stroke="#000"/><line x1="6.5" x2="282.5" y1="92.078" y2="92.078" stroke="#000"/><line x1="48.5" x2="48.5" y1="7.5" y2="110.08" stroke="#000"/><line x1="129.5" x2="129.5" y1="7.5" y2="110.08" stroke="#000"/><path fill="none" stroke="#000" stroke-width="1" d="m20.871 26.751h12m-11.5-3.1729h11v11h-11z"/><g fill="none" stroke="#000" transform="translate(0 1.5453)"><path stroke-linecap="square" stroke-width="1" d="m24.935 47.446 5.6592-5.6592"/><rect width="4" height="3.961" x="20.869" y="47.512" ry="0"/><rect width="2" height="2" x="30.774" y="39.593" ry="0"/></g><path fill="none" stroke="#000" stroke-linecap="square" stroke-width="1" d="m21.038 88.97 11.784-11.784"/><g fill="none" stroke="#000"><path d="m25.986 93.638h6.7885v6.7885z" transform="translate(0 .78224)"/><path stroke-linecap="square" stroke-width="1" d="m19.701 106.75 9.6682-9.6682" transform="translate(0 .78224)"/></g><g fill="none" stroke="#000" transform="translate(0 1.3665)"><path stroke-linecap="square" stroke-width="1" d="m24.935 65.602 5.6592-5.6592"/><rect width="4" height="3.961" x="20.869" y="65.668" ry="0"/><rect width="2" height="2" x="30.774" y="57.795" ry="0"/></g></svg></g></svg>