<svg xmlns="http://www.w3.org/2000/svg" xmlns:xlink="http://www.w3.org/1999/xlink" width="580" height="349" contentScriptType="application/ecmascript" contentStyleType="text/css" style="width:580px;height:349px" preserveAspectRatio="none" version="1.1" viewBox="0 0 580 349" zoomAndPan="magnify"><defs><filter id="f1jix2jleldpzu" width="300%" height="300%" x="-1" y="-1"><feGaussianBlur result="blurOut" stdDeviation="2"/><feColorMatrix in="blurOut" result="blurOut2" type="matrix" values="0 0 0 0 0 0 0 0 0 0 0 0 0 0 0 0 0 0 .4 0"/><feOffset dx="4" dy="4" in="blurOut2" result="blurOut3"/><feBlend in="SourceGraphic" in2="blurOut3" mode="normal"/></filter></defs><g><polygon fill="#FFF" points="22 34 32 24 558 24 558 109 548 119 22 119 22 34" filter="url(#f1jix2jleldpzu)" style="stroke:#000;stroke-width:1.5"/><line style="stroke:#000;stroke-width:1.5" x1="548" x2="557" y1="34" y2="25"/><line style="stroke:#000;stroke-width:1.5" x1="22" x2="548" y1="34" y2="34"/><line style="stroke:#000;stroke-width:1.5" x1="548" x2="548" y1="34" y2="119"/><text x="195.5" y="51.533" fill="#50237F" font-family="sans-serif" font-size="14" font-weight="bold" lengthAdjust="spacingAndGlyphs" textLength="181">PPMP Producer / Machine</text><polygon fill="#FFF" points="25 252 35 242 460 242 460 327 450 337 25 337 25 252" filter="url(#f1jix2jleldpzu)" style="stroke:#000;stroke-width:1.5"/><line style="stroke:#000;stroke-width:1.5" x1="450" x2="459" y1="252" y2="243"/><line style="stroke:#000;stroke-width:1.5" x1="25" x2="450" y1="252" y2="252"/><line style="stroke:#000;stroke-width:1.5" x1="450" x2="450" y1="252" y2="337"/><text x="180.5" y="269.533" fill="#50237F" font-family="sans-serif" font-size="14" font-weight="bold" lengthAdjust="spacingAndGlyphs" textLength="116">PPMP Consumer</text><rect style="stroke:#000;stroke-width:1.5" width="145" height="37.609" x="38.5" y="65" fill="#F5F5F5" filter="url(#f1jix2jleldpzu)"/><rect style="stroke:#000;stroke-width:1.5" width="10" height="5" x="33.5" y="70" fill="#F5F5F5"/><rect style="stroke:#000;stroke-width:1.5" width="10" height="5" x="33.5" y="92.609" fill="#F5F5F5"/><text x="48.5" y="89.533" fill="#50237F" font-family="sans-serif" font-size="14" lengthAdjust="spacingAndGlyphs" textLength="125">Information / Alarms</text><rect style="stroke:#000;stroke-width:1.5" width="110" height="37.609" x="219" y="65" fill="#F5F5F5" filter="url(#f1jix2jleldpzu)"/><rect style="stroke:#000;stroke-width:1.5" width="10" height="5" x="214" y="70" fill="#F5F5F5"/><rect style="stroke:#000;stroke-width:1.5" width="10" height="5" x="214" y="92.609" fill="#F5F5F5"/><text x="229" y="89.533" fill="#50237F" font-family="sans-serif" font-size="14" lengthAdjust="spacingAndGlyphs" textLength="90">Sensor values</text><rect style="stroke:#000;stroke-width:1.5" width="177" height="37.609" x="364.5" y="65" fill="#F5F5F5" filter="url(#f1jix2jleldpzu)"/><rect style="stroke:#000;stroke-width:1.5" width="10" height="5" x="359.5" y="70" fill="#F5F5F5"/><rect style="stroke:#000;stroke-width:1.5" width="10" height="5" x="359.5" y="92.609" fill="#F5F5F5"/><text x="374.5" y="89.533" fill="#50237F" font-family="sans-serif" font-size="14" lengthAdjust="spacingAndGlyphs" textLength="157">End-to-end process data</text><rect style="stroke:#000;stroke-width:1.5" width="141" height="37.609" x="41.5" y="283" fill="#F5F5F5" filter="url(#f1jix2jleldpzu)"/><rect style="stroke:#000;stroke-width:1.5" width="10" height="5" x="36.5" y="288" fill="#F5F5F5"/><rect style="stroke:#000;stroke-width:1.5" width="10" height="5" x="36.5" y="310.609" fill="#F5F5F5"/><text x="51.5" y="307.533" fill="#50237F" font-family="sans-serif" font-size="14" lengthAdjust="spacingAndGlyphs" textLength="121">Machine Messages</text><rect style="stroke:#000;stroke-width:1.5" width="113" height="37.609" x="217.5" y="283" fill="#F5F5F5" filter="url(#f1jix2jleldpzu)"/><rect style="stroke:#000;stroke-width:1.5" width="10" height="5" x="212.5" y="288" fill="#F5F5F5"/><rect style="stroke:#000;stroke-width:1.5" width="10" height="5" x="212.5" y="310.609" fill="#F5F5F5"/><text x="227.5" y="307.533" fill="#50237F" font-family="sans-serif" font-size="14" lengthAdjust="spacingAndGlyphs" textLength="93">Measurements</text><rect style="stroke:#000;stroke-width:1.5" width="78" height="37.609" x="366" y="283" fill="#F5F5F5" filter="url(#f1jix2jleldpzu)"/><rect style="stroke:#000;stroke-width:1.5" width="10" height="5" x="361" y="288" fill="#F5F5F5"/><rect style="stroke:#000;stroke-width:1.5" width="10" height="5" x="361" y="310.609" fill="#F5F5F5"/><text x="376" y="307.533" fill="#50237F" font-family="sans-serif" font-size="14" lengthAdjust="spacingAndGlyphs" textLength="58">Processs</text><ellipse cx="429" cy="193" fill="#78BE20" filter="url(#f1jix2jleldpzu)" rx="8" ry="8" style="stroke:#000;stroke-width:2"/><text x="402" y="224.533" fill="#50237F" font-family="sans-serif" font-size="14" lengthAdjust="spacingAndGlyphs" textLength="54">/process</text><ellipse cx="111" cy="193" fill="#78BE20" filter="url(#f1jix2jleldpzu)" rx="8" ry="8" style="stroke:#000;stroke-width:2"/><text x="80.5" y="224.533" fill="#50237F" font-family="sans-serif" font-size="14" lengthAdjust="spacingAndGlyphs" textLength="61">/message</text><ellipse cx="274" cy="193" fill="#78BE20" filter="url(#f1jix2jleldpzu)" rx="8" ry="8" style="stroke:#000;stroke-width:2"/><text x="229" y="224.533" fill="#50237F" font-family="sans-serif" font-size="14" lengthAdjust="spacingAndGlyphs" textLength="90">/measurement</text><path id="Information / Alarms-m" fill="none" d="M111,103.151 C111,124.441 111,159.248 111,178.364" style="stroke:#000;stroke-width:1"/><polygon fill="#000" points="111 183.761 115 174.761 111 178.761 107 174.761 111 183.761" style="stroke:#000;stroke-width:1"/><path id="m-Machine Messages" fill="none" d="M111.075,202.042 C111.223,217.857 111.556,253.5389 111.78,277.4483" style="stroke:#000;stroke-width:1"/><polygon fill="#000" points="111.829 282.657 115.745 273.62 111.782 277.658 107.745 273.695 111.829 282.657" style="stroke:#000;stroke-width:1"/><path id="Sensor values-s" fill="none" d="M274,103.151 C274,124.441 274,159.248 274,178.364" style="stroke:#000;stroke-width:1"/><polygon fill="#000" points="274 183.761 278 174.761 274 178.761 270 174.761 274 183.761" style="stroke:#000;stroke-width:1"/><path id="s-Measurements" fill="none" d="M274,202.042 C274,217.857 274,253.5389 274,277.4483" style="stroke:#000;stroke-width:1"/><polygon fill="#000" points="274 282.657 278 273.657 274 277.657 270 273.657 274 282.657" style="stroke:#000;stroke-width:1"/><path id="End-to-end process data-p" fill="none" d="M448.929,103.151 C444.112,124.624 436.211,159.849 431.948,178.855" style="stroke:#000;stroke-width:1"/><polygon fill="#000" points="430.848 183.761 436.721 175.855 431.942 178.882 428.915 174.104 430.848 183.761" style="stroke:#000;stroke-width:1"/><path id="p-Processs" fill="none" d="M427.196,202.042 C423.634,217.923 415.578,253.8391 410.215,277.749" style="stroke:#000;stroke-width:1"/><polygon fill="#000" points="409.114 282.657 414.987 274.751 410.208 277.779 407.181 273 409.114 282.657" style="stroke:#000;stroke-width:1"/></g></svg>